<?xml version="1.0" standalone="no"?>
<!DOCTYPE svg PUBLIC "-//W3C//DTD SVG 20010904//EN"
 "http://www.w3.org/TR/2001/REC-SVG-20010904/DTD/svg10.dtd">
<svg version="1.0" xmlns="http://www.w3.org/2000/svg"
 width="840.000000pt" height="840.000000pt" viewBox="0 0 840.000000 840.000000"
 preserveAspectRatio="xMidYMid meet">
<metadata>
Created by potrace 1.14, written by Peter Selinger 2001-2017
</metadata>
<g transform="translate(0.000000,840.000000) scale(0.100000,-0.100000)"
fill="#000000" stroke="none">
<path d="M3395 7151 l-770 -447 -3 -836 -2 -836 -720 -417 -720 -418 0 -898 0
-897 102 -59 c869 -505 1439 -833 1446 -833 6 0 333 186 727 414 l717 414 191
-111 c932 -539 1243 -717 1252 -717 6 0 355 200 775 444 l765 443 0 903 0 902
-701 407 c-385 223 -708 412 -717 420 -16 12 -17 84 -17 845 l0 832 -774 447
c-425 246 -775 447 -777 446 -2 0 -350 -202 -774 -448z m1450 -185 l660 -384
3 -711 c1 -391 -1 -711 -4 -711 -3 0 -304 172 -667 383 -364 210 -665 381
-669 380 -4 -2 -303 -174 -664 -383 -361 -209 -658 -379 -659 -378 -2 2 -5
322 -6 711 l-4 708 660 384 c363 211 667 384 675 384 8 0 312 -172 675 -383z
m-56 -1640 c481 -279 599 -352 589 -361 -19 -18 -968 -565 -980 -565 -5 0 -25
12 -43 26 -95 72 -255 69 -350 -6 -21 -16 -41 -30 -44 -30 -8 0 -992 568
-1003 578 -8 8 1202 712 1218 709 6 -1 281 -159 613 -351z m-1507 -2471 c361
-209 658 -384 659 -389 0 -5 -272 -168 -606 -362 l-607 -352 -167 97 c-92 53
-393 227 -669 386 l-502 290 0 775 1 775 612 353 612 352 5 -772 5 -772 657
-381z m80 1622 l514 -298 11 -61 c15 -75 65 -151 127 -193 l46 -30 0 -624 0
-623 -22 14 c-13 8 -290 169 -615 357 l-593 343 0 710 c0 400 4 708 9 706 5
-1 240 -137 523 -301z m2136 -1122 c-9 -9 -1142 -665 -1210 -702 -5 -2 -8 274
-8 614 l1 618 39 18 c48 23 112 85 136 135 10 20 23 64 29 96 l11 60 504 293
505 292 3 -707 c2 -557 -1 -709 -10 -717z m846 1070 l606 -350 0 -775 0 -776
-666 -384 c-367 -212 -669 -384 -673 -383 -8 2 -1204 694 -1213 702 -4 4 291
180 657 391 l665 385 0 773 c0 441 4 772 9 770 5 -1 281 -160 615 -353z"/>
</g>
</svg>
