<?xml version="1.0" standalone="no"?>
<!DOCTYPE svg PUBLIC "-//W3C//DTD SVG 20010904//EN"
 "http://www.w3.org/TR/2001/REC-SVG-20010904/DTD/svg10.dtd">
<svg version="1.0" xmlns="http://www.w3.org/2000/svg"
 width="132.000000pt" height="132.000000pt" viewBox="0 0 132.000000 132.000000"
 preserveAspectRatio="xMidYMid meet">
<metadata>
Created by potrace 1.14, written by Peter Selinger 2001-2017
</metadata>
<g transform="translate(0.000000,132.000000) scale(0.100000,-0.100000)"
fill="#000000" stroke="none">
<path d="M72 1300 c-18 -11 -41 -34 -52 -52 -19 -32 -20 -52 -20 -588 0 -536
1 -556 20 -588 11 -18 34 -41 52 -52 32 -19 52 -20 588 -20 536 0 556 1 588
20 18 11 41 34 52 52 19 32 20 52 20 588 0 536 -1 556 -20 588 -11 18 -34 41
-52 52 -32 19 -52 20 -588 20 -536 0 -556 -1 -588 -20z m728 -168 l135 -78 5
-149 5 -148 123 -71 122 -71 -2 -164 -3 -165 -125 -73 c-69 -41 -130 -76 -136
-79 -7 -3 -68 27 -138 66 l-125 72 -126 -72 -125 -72 -138 80 -137 79 -3 164
-2 164 122 70 123 70 5 149 5 148 135 79 c74 43 137 79 140 79 3 0 66 -35 140
-78z"/>
<path d="M543 1078 l-103 -60 0 -109 c0 -60 2 -109 4 -109 3 0 51 27 108 60
56 33 106 60 110 60 4 0 42 -21 85 -46 43 -25 90 -52 106 -60 l27 -15 0 110 0
110 -102 60 c-57 33 -110 60 -118 60 -8 0 -61 -28 -117 -61z"/>
<path d="M568 799 c-49 -28 -88 -54 -88 -57 0 -4 30 -24 65 -44 57 -32 69 -36
90 -26 19 8 32 8 51 0 22 -11 33 -8 90 24 35 19 66 39 68 43 4 6 -172 111
-185 111 -2 0 -43 -23 -91 -51z"/>
<path d="M283 637 l-93 -52 3 -134 2 -133 100 -59 c55 -32 106 -58 114 -59 7
0 53 23 102 51 79 46 87 53 72 64 -10 6 -59 35 -110 64 l-92 53 -3 129 -3 129
-92 -53z"/>
<path d="M440 581 l0 -110 93 -54 92 -55 3 89 c2 79 0 92 -20 121 -27 39 -25
37 -105 83 l-63 36 0 -110z"/>
<path d="M808 649 c-40 -24 -74 -52 -83 -69 -8 -15 -19 -30 -25 -32 -7 -2 -10
-37 -8 -95 l3 -92 84 49 c46 27 88 53 93 58 5 5 7 56 6 114 l-3 106 -67 -39z"/>
<path d="M940 562 l0 -130 -105 -62 c-58 -33 -103 -65 -100 -69 6 -11 165
-101 178 -101 5 0 58 28 118 62 l109 62 0 127 0 127 -92 54 c-51 29 -96 55
-100 56 -4 2 -8 -55 -8 -126z"/>
</g>
</svg>
