<?xml version="1.0" encoding="UTF-8"?>
<!DOCTYPE svg PUBLIC "-//W3C//DTD SVG 1.1//EN" "http://www.w3.org/Graphics/SVG/1.1/DTD/svg11.dtd">
<svg xmlns="http://www.w3.org/2000/svg" version="1.1" width="840px" height="840px" style="shape-rendering:geometricPrecision; text-rendering:geometricPrecision; image-rendering:optimizeQuality; fill-rule:evenodd; clip-rule:evenodd" xmlns:xlink="http://www.w3.org/1999/xlink">
<g><path style="opacity:0.998" fill="#f5f5f5" d="M 390.5,-0.5 C 409.833,-0.5 429.167,-0.5 448.5,-0.5C 560.998,9.00129 655.498,55.0013 732,137.5C 735.713,141.708 739.213,146.041 742.5,150.5C 741.883,150.611 741.383,150.944 741,151.5C 739.173,148.84 737.006,146.506 734.5,144.5C 733.707,145.355 734.04,146.189 735.5,147C 734.551,147.617 733.718,147.451 733,146.5C 732.887,148.974 731.887,150.974 730,152.5C 729.085,151.672 728.419,150.672 728,149.5C 727.333,150.833 726.667,150.833 726,149.5C 725.544,150.744 726.044,151.577 727.5,152C 723.141,153.491 719.641,155.991 717,159.5C 716.02,158.019 714.853,156.685 713.5,155.5C 714.833,154.38 715.333,153.047 715,151.5C 713.471,152.729 712.304,154.229 711.5,156C 706.672,156.606 706.672,157.939 711.5,160C 710.5,160.333 709.5,160.667 708.5,161C 709.258,162.364 708.758,163.531 707,164.5C 705.167,163.333 703.667,161.833 702.5,160C 706.131,159.794 706.465,158.627 703.5,156.5C 703.594,157.972 702.594,159.138 700.5,160C 701.5,161 702.5,162 703.5,163C 702.551,163.617 701.718,163.451 701,162.5C 700.458,167.721 699.624,167.721 698.5,162.5C 697.304,162.846 697.304,163.346 698.5,164C 696.706,165.473 695.04,166.306 693.5,166.5C 694.025,167.192 694.692,167.692 695.5,168C 691.141,169.491 687.641,171.991 685,175.5C 684.02,174.019 682.853,172.685 681.5,171.5C 682.833,170.38 683.333,169.047 683,167.5C 681.471,168.729 680.304,170.229 679.5,172C 674.672,172.606 674.672,173.939 679.5,176C 678.5,176.333 677.5,176.667 676.5,177C 677.258,178.364 676.758,179.531 675,180.5C 673.167,179.333 671.667,177.833 670.5,176C 674.131,175.794 674.465,174.627 671.5,172.5C 671.594,173.972 670.594,175.138 668.5,176C 669.167,176.667 669.833,177.333 670.5,178C 669.033,179.098 668.199,180.598 668,182.5C 667.781,181.062 667.281,179.729 666.5,178.5C 665.304,178.846 665.304,179.346 666.5,180C 664.706,181.473 663.04,182.306 661.5,182.5C 662.025,183.192 662.692,183.692 663.5,184C 659.141,185.491 655.641,187.991 653,191.5C 652.02,190.019 650.853,188.685 649.5,187.5C 650.833,186.38 651.333,185.047 651,183.5C 649.471,184.729 648.304,186.229 647.5,188C 642.672,188.606 642.672,189.939 647.5,192C 646.5,192.333 645.5,192.667 644.5,193C 645.258,194.364 644.758,195.531 643,196.5C 641.167,195.333 639.667,193.833 638.5,192C 642.131,191.794 642.465,190.627 639.5,188.5C 639.594,189.972 638.594,191.138 636.5,192C 637.167,192.667 637.833,193.333 638.5,194C 637.033,195.098 636.199,196.598 636,198.5C 635.781,197.062 635.281,195.729 634.5,194.5C 633.304,194.846 633.304,195.346 634.5,196C 632.706,197.473 631.04,198.306 629.5,198.5C 630.025,199.192 630.692,199.692 631.5,200C 627.141,201.491 623.641,203.991 621,207.5C 620.02,206.019 618.853,204.685 617.5,203.5C 618.833,202.38 619.333,201.047 619,199.5C 617.471,200.729 616.304,202.229 615.5,204C 613.112,204.303 610.945,205.137 609,206.5C 608.577,205.044 607.744,204.544 606.5,205C 606.833,205.333 607.167,205.667 607.5,206C 604.237,206.869 603.904,208.203 606.5,210C 605.033,211.098 604.199,212.598 604,214.5C 603.781,213.062 603.281,211.729 602.5,210.5C 601.304,210.846 601.304,211.346 602.5,212C 601.069,212.465 599.903,213.299 599,214.5C 597.984,213.366 597.317,213.699 597,215.5C 596.692,214.692 596.192,214.025 595.5,213.5C 593.958,214.747 592.458,214.747 591,213.5C 590.028,215.305 588.861,216.972 587.5,218.5C 587.089,217.738 586.923,216.738 587,215.5C 585.471,216.729 584.304,218.229 583.5,220C 580.863,220.015 578.696,219.515 577,218.5C 576.5,219.667 575.667,220.5 574.5,221C 575.151,222.308 574.485,223.141 572.5,223.5C 572.83,204.992 572.497,186.659 571.5,168.5C 567.833,166.5 564.167,164.5 560.5,162.5C 554.795,158.647 548.795,155.314 542.5,152.5C 537.455,148.805 532.122,145.472 526.5,142.5C 519.5,138.5 512.5,134.5 505.5,130.5C 500.833,127.833 496.167,125.167 491.5,122.5C 484.663,118.247 477.663,114.247 470.5,110.5C 453.743,100.929 437.076,91.0952 420.5,81C 418.956,79.8129 417.289,79.4795 415.5,80C 364.5,109.5 313.5,139 262.5,168.5C 261.501,181.817 261.167,195.15 261.5,208.5C 261.5,214.833 261.5,221.167 261.5,227.5C 261.5,235.5 261.5,243.5 261.5,251.5C 261.5,260.5 261.5,269.5 261.5,278.5C 261.5,282.5 261.5,286.5 261.5,290.5C 261.5,297.5 261.5,304.5 261.5,311.5C 261.5,319.833 261.5,328.167 261.5,336.5C 253.829,340.333 246.496,344.666 239.5,349.5C 234.368,351.9 229.368,354.566 224.5,357.5C 219.299,360.263 214.299,363.263 209.5,366.5C 204.554,368.803 199.887,371.469 195.5,374.5C 189.633,377.596 183.967,380.929 178.5,384.5C 174.164,386.332 170.164,388.665 166.5,391.5C 161.5,393.664 156.833,396.331 152.5,399.5C 147.216,402.137 142.216,405.137 137.5,408.5C 130.539,411.647 123.873,415.313 117.5,419.5C 116.67,428.658 116.17,437.991 116,447.5C 114.354,445.945 114.021,444.279 115,442.5C 112.512,443.265 110.345,445.098 108.5,448C 109.167,448.667 109.833,449.333 110.5,450C 109.033,451.098 108.199,452.598 108,454.5C 107.331,450.5 105.164,447.667 101.5,446C 102.167,445.667 102.833,445.333 103.5,445C 102.167,444.333 100.833,444.333 99.5,445C 100.376,446.585 101.709,447.585 103.5,448C 102.5,448.333 101.5,448.667 100.5,449C 100.5,450.333 100.5,451.667 100.5,453C 98.1446,451.631 95.8113,450.298 93.5,449C 96.277,451.173 96.1103,451.673 93,450.5C 92.2124,453.963 90.5457,456.963 88,459.5C 87.6667,458.833 87.3333,458.167 87,457.5C 86.2588,458.641 85.4255,458.641 84.5,457.5C 83.5224,457.977 82.6891,458.643 82,459.5C 81.6667,459.167 81.3333,458.833 81,458.5C 79.5,460.333 78,462.167 76.5,464C 77.1667,464.667 77.8333,465.333 78.5,466C 77.0325,467.098 76.1992,468.598 76,470.5C 75.3306,466.5 73.1639,463.667 69.5,462C 70.1667,461.667 70.8333,461.333 71.5,461C 70.1667,460.333 68.8333,460.333 67.5,461C 68.3757,462.585 69.7091,463.585 71.5,464C 70.5,464.333 69.5,464.667 68.5,465C 69.2583,466.364 68.7583,467.531 67,468.5C 65.5,467.667 64.3333,466.5 63.5,465C 61.0953,464.719 61.0953,465.385 63.5,467C 62.5509,467.617 61.7175,467.451 61,466.5C 60.2124,469.963 58.5457,472.963 56,475.5C 55.6667,474.833 55.3333,474.167 55,473.5C 53.1267,472.911 51.46,473.578 50,475.5C 49.6667,475.167 49.3333,474.833 49,474.5C 47.5,476.333 46,478.167 44.5,480C 45.1667,480.667 45.8333,481.333 46.5,482C 45.0325,483.098 44.1992,484.598 44,486.5C 43.3306,482.5 41.1639,479.667 37.5,478C 38.1667,477.667 38.8333,477.333 39.5,477C 38.1667,476.333 36.8333,476.333 35.5,477C 36.3757,478.585 37.7091,479.585 39.5,480C 38.5,480.333 37.5,480.667 36.5,481C 37.2583,482.364 36.7583,483.531 35,484.5C 33.5,483.667 32.3333,482.5 31.5,481C 29.0953,480.719 29.0953,481.385 31.5,483C 30.5509,483.617 29.7175,483.451 29,482.5C 28.2124,485.963 26.5457,488.963 24,491.5C 23.6667,490.833 23.3333,490.167 23,489.5C 21.1267,488.911 19.46,489.578 18,491.5C 17.6667,491.167 17.3333,490.833 17,490.5C 15.5,492.333 14,494.167 12.5,496C 13.1667,496.667 13.8333,497.333 14.5,498C 13.0325,499.098 12.1992,500.598 12,502.5C 11.5779,499.24 10.0779,496.574 7.5,494.5C 7.21285,495.2 6.87952,495.867 6.5,496.5C 3.34738,480.611 1.01404,464.611 -0.5,448.5C -0.5,429.167 -0.5,409.833 -0.5,390.5C 13.2406,249.045 79.2406,139.545 197.5,62C 256.839,25.6598 321.172,4.8265 390.5,-0.5 Z"/></g>
<g><path style="opacity:1" fill="#0dd499" d="M 470.5,110.5 C 469.918,111.931 469.085,113.264 468,114.5C 463.757,115.773 459.424,117.773 455,120.5C 454.667,120.167 454.333,119.833 454,119.5C 452.595,120.731 451.429,122.064 450.5,123.5C 439.221,117.191 427.888,110.858 416.5,104.5C 371.976,129.926 327.642,155.592 283.5,181.5C 282.833,189.343 282.167,197.343 281.5,205.5C 277.674,207.042 274.174,209.042 271,211.5C 269.667,211.5 268.333,211.5 267,211.5C 265.333,212.5 264,213.833 263,215.5C 262.814,212.964 262.314,210.631 261.5,208.5C 261.167,195.15 261.501,181.817 262.5,168.5C 313.5,139 364.5,109.5 415.5,80C 417.289,79.4795 418.956,79.8129 420.5,81C 437.076,91.0952 453.743,100.929 470.5,110.5 Z"/></g>
<g><path style="opacity:1" fill="#f4f4f4" d="M 450.5,123.5 C 455.967,127.071 461.633,130.404 467.5,133.5C 472.502,137.003 477.835,140.003 483.5,142.5C 490.004,147.255 497.004,151.255 504.5,154.5C 509.665,158.586 515.332,161.92 521.5,164.5C 526.967,168.071 532.633,171.404 538.5,174.5C 542.353,176.682 546.186,179.016 550,181.5C 550.497,184.146 550.664,186.813 550.5,189.5C 550.5,194.833 550.5,200.167 550.5,205.5C 550.5,211.833 550.5,218.167 550.5,224.5C 550.5,231.5 550.5,238.5 550.5,245.5C 550.5,251.5 550.5,257.5 550.5,263.5C 550.5,268.5 550.5,273.5 550.5,278.5C 550.5,286.5 550.5,294.5 550.5,302.5C 550.5,308.167 550.5,313.833 550.5,319.5C 550.5,320.833 550.5,322.167 550.5,323.5C 505.861,297.845 461.194,272.178 416.5,246.5C 372.303,272.431 327.969,298.098 283.5,323.5C 283.5,313.5 283.5,303.5 283.5,293.5C 283.5,282.5 283.5,271.5 283.5,260.5C 283.5,246.167 283.5,231.833 283.5,217.5C 283.5,205.5 283.5,193.5 283.5,181.5C 327.642,155.592 371.976,129.926 416.5,104.5C 427.888,110.858 439.221,117.191 450.5,123.5 Z"/></g>
<g><path style="opacity:1" fill="#10cb9f" d="M 470.5,110.5 C 477.663,114.247 484.663,118.247 491.5,122.5C 489.101,123.792 486.934,125.459 485,127.5C 482.929,126.333 481.429,126.999 480.5,129.5C 478.282,128.812 476.782,129.812 476,132.5C 475.667,132.167 475.333,131.833 475,131.5C 472.772,133.113 470.272,133.78 467.5,133.5C 461.633,130.404 455.967,127.071 450.5,123.5C 451.429,122.064 452.595,120.731 454,119.5C 454.333,119.833 454.667,120.167 455,120.5C 459.424,117.773 463.757,115.773 468,114.5C 469.085,113.264 469.918,111.931 470.5,110.5 Z"/></g>
<g><path style="opacity:1" fill="#14c5a4" d="M 491.5,122.5 C 496.167,125.167 500.833,127.833 505.5,130.5C 506.498,132.45 506.332,134.45 505,136.5C 503.984,135.366 503.317,135.699 503,137.5C 502.667,137.167 502.333,136.833 502,136.5C 499.929,137.364 498.262,138.697 497,140.5C 495.559,139.74 494.059,139.074 492.5,138.5C 491.304,138.846 491.304,139.346 492.5,140C 489.647,141.43 486.647,142.263 483.5,142.5C 477.835,140.003 472.502,137.003 467.5,133.5C 470.272,133.78 472.772,133.113 475,131.5C 475.333,131.833 475.667,132.167 476,132.5C 476.782,129.812 478.282,128.812 480.5,129.5C 481.429,126.999 482.929,126.333 485,127.5C 486.934,125.459 489.101,123.792 491.5,122.5 Z"/></g>
<g><path style="opacity:1" fill="#17bfa8" d="M 505.5,130.5 C 512.5,134.5 519.5,138.5 526.5,142.5C 522.985,144.132 519.318,145.632 515.5,147C 514.874,147.75 514.374,148.584 514,149.5C 513.667,149.167 513.333,148.833 513,148.5C 510.012,150.399 507.179,152.399 504.5,154.5C 497.004,151.255 490.004,147.255 483.5,142.5C 486.647,142.263 489.647,141.43 492.5,140C 491.304,139.346 491.304,138.846 492.5,138.5C 494.059,139.074 495.559,139.74 497,140.5C 498.262,138.697 499.929,137.364 502,136.5C 502.333,136.833 502.667,137.167 503,137.5C 503.317,135.699 503.984,135.366 505,136.5C 506.332,134.45 506.498,132.45 505.5,130.5 Z"/></g>
<g><path style="opacity:1" fill="#18b9ad" d="M 526.5,142.5 C 532.122,145.472 537.455,148.805 542.5,152.5C 542.607,154.379 542.107,154.712 541,153.5C 540.683,155.301 540.016,155.634 539,154.5C 532.538,157.82 526.704,161.153 521.5,164.5C 515.332,161.92 509.665,158.586 504.5,154.5C 507.179,152.399 510.012,150.399 513,148.5C 513.333,148.833 513.667,149.167 514,149.5C 514.374,148.584 514.874,147.75 515.5,147C 519.318,145.632 522.985,144.132 526.5,142.5 Z"/></g>
<g><path style="opacity:0.998" fill="#f0f0f0" d="M 742.5,150.5 C 799.827,220.094 832.16,300.094 839.5,390.5C 839.5,409.833 839.5,429.167 839.5,448.5C 837.806,468.025 834.806,487.359 830.5,506.5C 830.264,505.098 829.93,503.598 829.5,502C 829.905,501.055 830.572,500.388 831.5,500C 829.667,499.5 828.5,498.333 828,496.5C 827.395,498.481 826.395,498.815 825,497.5C 822.556,499.723 821.89,502.389 823,505.5C 822,506.833 821,506.833 820,505.5C 819.147,507.125 818.147,507.458 817,506.5C 816.692,507.308 816.192,507.975 815.5,508.5C 814.575,507.359 813.741,507.359 813,508.5C 812.667,507.833 812.333,507.167 812,506.5C 809.586,510.414 807.586,514.081 806,517.5C 805.259,516.359 804.425,516.359 803.5,517.5C 802.572,515.665 801.406,515.332 800,516.5C 798,515.833 796.667,514.5 796,512.5C 795.395,514.481 794.395,514.815 793,513.5C 790.556,515.723 789.89,518.389 791,521.5C 790,522.833 789,522.833 788,521.5C 787.147,523.125 786.147,523.458 785,522.5C 784.692,523.308 784.192,523.975 783.5,524.5C 782.575,523.359 781.741,523.359 781,524.5C 780.667,523.833 780.333,523.167 780,522.5C 777.586,526.414 775.586,530.081 774,533.5C 773.259,532.359 772.425,532.359 771.5,533.5C 770.572,531.665 769.406,531.332 768,532.5C 766,531.833 764.667,530.5 764,528.5C 763.395,530.481 762.395,530.815 761,529.5C 758.556,531.723 757.89,534.389 759,537.5C 758,538.833 757,538.833 756,537.5C 755.147,539.125 754.147,539.458 753,538.5C 752.692,539.308 752.192,539.975 751.5,540.5C 750.575,539.359 749.741,539.359 749,540.5C 748.667,539.833 748.333,539.167 748,538.5C 745.586,542.414 743.586,546.081 742,549.5C 741.259,548.359 740.425,548.359 739.5,549.5C 738.572,547.665 737.406,547.332 736,548.5C 734,547.833 732.667,546.5 732,544.5C 731.395,546.481 730.395,546.815 729,545.5C 726.556,547.723 725.89,550.389 727,553.5C 725,551.5 723,549.5 721,547.5C 720.167,548.333 719.333,549.167 718.5,550C 719.833,551.333 719.833,552.667 718.5,554C 719.308,554.308 719.975,554.808 720.5,555.5C 719.139,555.788 717.806,556.121 716.5,556.5C 716.667,510.832 716.5,465.165 716,419.5C 711.59,416.907 707.09,414.574 702.5,412.5C 698.005,408.749 693.005,405.749 687.5,403.5C 682.498,399.997 677.165,396.997 671.5,394.5C 666.335,390.414 660.668,387.08 654.5,384.5C 649.006,380.918 643.339,377.585 637.5,374.5C 631.83,370.663 625.83,367.33 619.5,364.5C 614.539,360.68 609.206,357.347 603.5,354.5C 593.22,348.727 583.054,342.727 573,336.5C 572.5,298.835 572.333,261.168 572.5,223.5C 574.485,223.141 575.151,222.308 574.5,221C 575.667,220.5 576.5,219.667 577,218.5C 578.696,219.515 580.863,220.015 583.5,220C 584.304,218.229 585.471,216.729 587,215.5C 586.923,216.738 587.089,217.738 587.5,218.5C 588.861,216.972 590.028,215.305 591,213.5C 592.458,214.747 593.958,214.747 595.5,213.5C 596.192,214.025 596.692,214.692 597,215.5C 597.317,213.699 597.984,213.366 599,214.5C 599.903,213.299 601.069,212.465 602.5,212C 601.304,211.346 601.304,210.846 602.5,210.5C 603.281,211.729 603.781,213.062 604,214.5C 604.199,212.598 605.033,211.098 606.5,210C 603.904,208.203 604.237,206.869 607.5,206C 607.167,205.667 606.833,205.333 606.5,205C 607.744,204.544 608.577,205.044 609,206.5C 610.945,205.137 613.112,204.303 615.5,204C 616.304,202.229 617.471,200.729 619,199.5C 619.333,201.047 618.833,202.38 617.5,203.5C 618.853,204.685 620.02,206.019 621,207.5C 623.641,203.991 627.141,201.491 631.5,200C 630.692,199.692 630.025,199.192 629.5,198.5C 631.04,198.306 632.706,197.473 634.5,196C 633.304,195.346 633.304,194.846 634.5,194.5C 635.281,195.729 635.781,197.062 636,198.5C 636.199,196.598 637.033,195.098 638.5,194C 637.833,193.333 637.167,192.667 636.5,192C 638.594,191.138 639.594,189.972 639.5,188.5C 642.465,190.627 642.131,191.794 638.5,192C 639.667,193.833 641.167,195.333 643,196.5C 644.758,195.531 645.258,194.364 644.5,193C 645.5,192.667 646.5,192.333 647.5,192C 642.672,189.939 642.672,188.606 647.5,188C 648.304,186.229 649.471,184.729 651,183.5C 651.333,185.047 650.833,186.38 649.5,187.5C 650.853,188.685 652.02,190.019 653,191.5C 655.641,187.991 659.141,185.491 663.5,184C 662.692,183.692 662.025,183.192 661.5,182.5C 663.04,182.306 664.706,181.473 666.5,180C 665.304,179.346 665.304,178.846 666.5,178.5C 667.281,179.729 667.781,181.062 668,182.5C 668.199,180.598 669.033,179.098 670.5,178C 669.833,177.333 669.167,176.667 668.5,176C 670.594,175.138 671.594,173.972 671.5,172.5C 674.465,174.627 674.131,175.794 670.5,176C 671.667,177.833 673.167,179.333 675,180.5C 676.758,179.531 677.258,178.364 676.5,177C 677.5,176.667 678.5,176.333 679.5,176C 674.672,173.939 674.672,172.606 679.5,172C 680.304,170.229 681.471,168.729 683,167.5C 683.333,169.047 682.833,170.38 681.5,171.5C 682.853,172.685 684.02,174.019 685,175.5C 687.641,171.991 691.141,169.491 695.5,168C 694.692,167.692 694.025,167.192 693.5,166.5C 695.04,166.306 696.706,165.473 698.5,164C 697.304,163.346 697.304,162.846 698.5,162.5C 699.624,167.721 700.458,167.721 701,162.5C 701.718,163.451 702.551,163.617 703.5,163C 702.5,162 701.5,161 700.5,160C 702.594,159.138 703.594,157.972 703.5,156.5C 706.465,158.627 706.131,159.794 702.5,160C 703.667,161.833 705.167,163.333 707,164.5C 708.758,163.531 709.258,162.364 708.5,161C 709.5,160.667 710.5,160.333 711.5,160C 706.672,157.939 706.672,156.606 711.5,156C 712.304,154.229 713.471,152.729 715,151.5C 715.333,153.047 714.833,154.38 713.5,155.5C 714.853,156.685 716.02,158.019 717,159.5C 719.641,155.991 723.141,153.491 727.5,152C 726.044,151.577 725.544,150.744 726,149.5C 726.667,150.833 727.333,150.833 728,149.5C 728.419,150.672 729.085,151.672 730,152.5C 731.887,150.974 732.887,148.974 733,146.5C 733.718,147.451 734.551,147.617 735.5,147C 734.04,146.189 733.707,145.355 734.5,144.5C 737.006,146.506 739.173,148.84 741,151.5C 741.383,150.944 741.883,150.611 742.5,150.5 Z"/></g>
<g><path style="opacity:1" fill="#1bb2b2" d="M 542.5,152.5 C 548.795,155.314 554.795,158.647 560.5,162.5C 560.421,163.958 559.921,165.292 559,166.5C 558.667,166.167 558.333,165.833 558,165.5C 556.225,167.394 554.225,169.061 552,170.5C 550.667,170.5 549.333,170.5 548,170.5C 547.085,171.328 546.419,172.328 546,173.5C 545.667,172.833 545.333,172.167 545,171.5C 544.581,172.672 543.915,173.672 543,174.5C 541.586,173.587 540.086,173.587 538.5,174.5C 532.633,171.404 526.967,168.071 521.5,164.5C 526.704,161.153 532.538,157.82 539,154.5C 540.016,155.634 540.683,155.301 541,153.5C 542.107,154.712 542.607,154.379 542.5,152.5 Z"/></g>
<g><path style="opacity:1" fill="#1cacb6" d="M 560.5,162.5 C 564.167,164.5 567.833,166.5 571.5,168.5C 571.5,171.5 571.5,174.5 571.5,177.5C 568.599,179.355 566.099,181.021 564,182.5C 563.282,181.549 562.449,181.383 561.5,182C 560.333,183.167 559.167,184.333 558,185.5C 556.251,184.701 554.918,185.368 554,187.5C 553.667,186.833 553.333,186.167 553,185.5C 552.066,186.858 551.232,188.192 550.5,189.5C 550.664,186.813 550.497,184.146 550,181.5C 546.186,179.016 542.353,176.682 538.5,174.5C 540.086,173.587 541.586,173.587 543,174.5C 543.915,173.672 544.581,172.672 545,171.5C 545.333,172.167 545.667,172.833 546,173.5C 546.419,172.328 547.085,171.328 548,170.5C 549.333,170.5 550.667,170.5 552,170.5C 554.225,169.061 556.225,167.394 558,165.5C 558.333,165.833 558.667,166.167 559,166.5C 559.921,165.292 560.421,163.958 560.5,162.5 Z"/></g>
<g><path style="opacity:1" fill="#1ba5ba" d="M 571.5,177.5 C 571.5,183.5 571.5,189.5 571.5,195.5C 565.277,199.436 558.277,202.77 550.5,205.5C 550.5,200.167 550.5,194.833 550.5,189.5C 551.232,188.192 552.066,186.858 553,185.5C 553.333,186.167 553.667,186.833 554,187.5C 554.918,185.368 556.251,184.701 558,185.5C 559.167,184.333 560.333,183.167 561.5,182C 562.449,181.383 563.282,181.549 564,182.5C 566.099,181.021 568.599,179.355 571.5,177.5 Z"/></g>
<g><path style="opacity:1" fill="#1e9fbf" d="M 571.5,195.5 C 571.5,202.167 571.5,208.833 571.5,215.5C 569.418,215.624 567.918,216.624 567,218.5C 566.586,218.043 566.086,217.709 565.5,217.5C 564.667,218.5 563.833,219.5 563,220.5C 562.667,220.167 562.333,219.833 562,219.5C 559.932,221.562 557.432,222.728 554.5,223C 557.167,223.667 557.167,224.333 554.5,225C 553.072,225.579 551.738,225.412 550.5,224.5C 550.5,218.167 550.5,211.833 550.5,205.5C 558.277,202.77 565.277,199.436 571.5,195.5 Z"/></g>
<g><path style="opacity:1" fill="#11cca0" d="M 283.5,181.5 C 283.5,193.5 283.5,205.5 283.5,217.5C 282.523,220.287 282.19,223.287 282.5,226.5C 281.312,227.684 280.145,227.684 279,226.5C 277.615,227.551 276.615,228.884 276,230.5C 273.909,229.5 272.243,230.167 271,232.5C 270.667,232.167 270.333,231.833 270,231.5C 268.43,232.614 267.097,233.947 266,235.5C 265.667,234.833 265.333,234.167 265,233.5C 263.956,234.623 263.29,235.956 263,237.5C 262.821,233.975 262.321,230.641 261.5,227.5C 261.5,221.167 261.5,214.833 261.5,208.5C 262.314,210.631 262.814,212.964 263,215.5C 264,213.833 265.333,212.5 267,211.5C 268.333,211.5 269.667,211.5 271,211.5C 274.174,209.042 277.674,207.042 281.5,205.5C 282.167,197.343 282.833,189.343 283.5,181.5 Z"/></g>
<g><path style="opacity:1" fill="#2298c4" d="M 571.5,215.5 C 571.5,222.167 571.5,228.833 571.5,235.5C 569.83,235.751 568.33,236.418 567,237.5C 566.667,237.167 566.333,236.833 566,236.5C 563.86,237.728 562.193,239.395 561,241.5C 560.586,241.043 560.086,240.709 559.5,240.5C 556.929,242.952 553.929,244.619 550.5,245.5C 550.5,238.5 550.5,231.5 550.5,224.5C 551.738,225.412 553.072,225.579 554.5,225C 557.167,224.333 557.167,223.667 554.5,223C 557.432,222.728 559.932,221.562 562,219.5C 562.333,219.833 562.667,220.167 563,220.5C 563.833,219.5 564.667,218.5 565.5,217.5C 566.086,217.709 566.586,218.043 567,218.5C 567.918,216.624 569.418,215.624 571.5,215.5 Z"/></g>
<g><path style="opacity:1" fill="#0dc4a3" d="M 282.5,226.5 C 282.666,232.176 282.499,237.843 282,243.5C 281,243.5 280,243.5 279,243.5C 278.085,244.328 277.419,245.328 277,246.5C 275.475,246.888 273.808,246.888 272,246.5C 269.175,250.203 265.675,251.869 261.5,251.5C 261.5,243.5 261.5,235.5 261.5,227.5C 262.321,230.641 262.821,233.975 263,237.5C 263.29,235.956 263.956,234.623 265,233.5C 265.333,234.167 265.667,234.833 266,235.5C 267.097,233.947 268.43,232.614 270,231.5C 270.333,231.833 270.667,232.167 271,232.5C 272.243,230.167 273.909,229.5 276,230.5C 276.615,228.884 277.615,227.551 279,226.5C 280.145,227.684 281.312,227.684 282.5,226.5 Z"/></g>
<g><path style="opacity:1" fill="#15c0a8" d="M 283.5,217.5 C 283.5,231.833 283.5,246.167 283.5,260.5C 282.178,262.263 280.678,263.93 279,265.5C 278.667,264.833 278.333,264.167 278,263.5C 276.899,265.394 275.566,266.061 274,265.5C 272.262,268.232 269.762,269.732 266.5,270C 265.638,272.734 264.805,272.901 264,270.5C 263.252,272.946 262.419,275.612 261.5,278.5C 261.5,269.5 261.5,260.5 261.5,251.5C 265.675,251.869 269.175,250.203 272,246.5C 273.808,246.888 275.475,246.888 277,246.5C 277.419,245.328 278.085,244.328 279,243.5C 280,243.5 281,243.5 282,243.5C 282.499,237.843 282.666,232.176 282.5,226.5C 282.19,223.287 282.523,220.287 283.5,217.5 Z"/></g>
<g><path style="opacity:1" fill="#2591c9" d="M 571.5,235.5 C 571.5,241.5 571.5,247.5 571.5,253.5C 570.603,254.598 569.77,254.598 569,253.5C 567.899,255.394 566.566,256.061 565,255.5C 564.082,257.632 562.749,258.299 561,257.5C 559.903,259.053 558.57,260.386 557,261.5C 555.984,260.366 555.317,260.699 555,262.5C 553.16,261.167 552.66,261.334 553.5,263C 552.552,263.483 551.552,263.649 550.5,263.5C 550.5,257.5 550.5,251.5 550.5,245.5C 553.929,244.619 556.929,242.952 559.5,240.5C 560.086,240.709 560.586,241.043 561,241.5C 562.193,239.395 563.86,237.728 566,236.5C 566.333,236.833 566.667,237.167 567,237.5C 568.33,236.418 569.83,235.751 571.5,235.5 Z"/></g>
<g><path style="opacity:1" fill="#0ed499" d="M 550.5,323.5 C 557.004,328.255 564.004,332.255 571.5,335.5C 571.196,344.584 571.529,353.584 572.5,362.5C 572.833,413.838 572.5,465.171 571.5,516.5C 527.109,541.689 483.109,567.355 439.5,593.5C 431.874,596.98 424.54,600.98 417.5,605.5C 416.833,605.5 416.167,605.5 415.5,605.5C 408.996,600.745 401.996,596.745 394.5,593.5C 350.563,567.86 306.563,542.193 262.5,516.5C 261.5,464.838 261.167,413.171 261.5,361.5C 261.5,353.167 261.5,344.833 261.5,336.5C 268.833,332.167 276.167,327.833 283.5,323.5C 327.969,298.098 372.303,272.431 416.5,246.5C 461.194,272.178 505.861,297.845 550.5,323.5 Z"/></g>
<g><path style="opacity:1" fill="#288ccc" d="M 571.5,253.5 C 571.5,258.5 571.5,263.5 571.5,268.5C 569.092,268.996 566.425,269.996 563.5,271.5C 562.585,273.98 561.085,274.647 559,273.5C 558.676,275.569 557.842,275.902 556.5,274.5C 555.52,275.981 554.353,277.315 553,278.5C 552.667,277.833 552.333,277.167 552,276.5C 551.722,277.416 551.222,278.082 550.5,278.5C 550.5,273.5 550.5,268.5 550.5,263.5C 551.552,263.649 552.552,263.483 553.5,263C 552.66,261.334 553.16,261.167 555,262.5C 555.317,260.699 555.984,260.366 557,261.5C 558.57,260.386 559.903,259.053 561,257.5C 562.749,258.299 564.082,257.632 565,255.5C 566.566,256.061 567.899,255.394 569,253.5C 569.77,254.598 570.603,254.598 571.5,253.5 Z"/></g>
<g><path style="opacity:1" fill="#17b9ad" d="M 283.5,260.5 C 283.5,271.5 283.5,282.5 283.5,293.5C 283.167,293.5 282.833,293.5 282.5,293.5C 282.666,289.154 282.499,284.821 282,280.5C 280.667,281.833 279.333,283.167 278,284.5C 272.544,285.237 267.544,287.57 263,291.5C 262.617,290.944 262.117,290.611 261.5,290.5C 261.5,286.5 261.5,282.5 261.5,278.5C 262.419,275.612 263.252,272.946 264,270.5C 264.805,272.901 265.638,272.734 266.5,270C 269.762,269.732 272.262,268.232 274,265.5C 275.566,266.061 276.899,265.394 278,263.5C 278.333,264.167 278.667,264.833 279,265.5C 280.678,263.93 282.178,262.263 283.5,260.5 Z"/></g>
<g><path style="opacity:1" fill="#16b2b1" d="M 282.5,293.5 C 282.665,296.518 282.498,299.518 282,302.5C 280.434,301.939 279.101,302.606 278,304.5C 277.667,304.167 277.333,303.833 277,303.5C 276.082,305.632 274.749,306.299 273,305.5C 272.082,307.632 270.749,308.299 269,307.5C 268.085,308.328 267.419,309.328 267,310.5C 265.16,309.167 264.66,309.334 265.5,311C 264.207,311.49 262.873,311.657 261.5,311.5C 261.5,304.5 261.5,297.5 261.5,290.5C 262.117,290.611 262.617,290.944 263,291.5C 267.544,287.57 272.544,285.237 278,284.5C 279.333,283.167 280.667,281.833 282,280.5C 282.499,284.821 282.666,289.154 282.5,293.5 Z"/></g>
<g><path style="opacity:1" fill="#2b85d2" d="M 571.5,268.5 C 571.5,276.5 571.5,284.5 571.5,292.5C 569.475,293.565 567.642,294.898 566,296.5C 564.84,294.203 563.84,294.536 563,297.5C 562.667,296.833 562.333,296.167 562,295.5C 559.148,298.857 555.815,301.523 552,303.5C 551.617,302.944 551.117,302.611 550.5,302.5C 550.5,294.5 550.5,286.5 550.5,278.5C 551.222,278.082 551.722,277.416 552,276.5C 552.333,277.167 552.667,277.833 553,278.5C 554.353,277.315 555.52,275.981 556.5,274.5C 557.842,275.902 558.676,275.569 559,273.5C 561.085,274.647 562.585,273.98 563.5,271.5C 566.425,269.996 569.092,268.996 571.5,268.5 Z"/></g>
<g><path style="opacity:1" fill="#f2f2f2" d="M 522.5,352.5 C 516.835,354.997 511.502,357.997 506.5,361.5C 501.216,364.137 496.216,367.137 491.5,370.5C 484.668,373.412 478.334,377.079 472.5,381.5C 466.835,383.997 461.502,386.997 456.5,390.5C 450.675,393.245 445.008,396.245 439.5,399.5C 424.512,388.525 409.845,388.859 395.5,400.5C 389.5,397.167 383.5,393.833 377.5,390.5C 372.15,387.472 366.816,384.472 361.5,381.5C 356.033,377.929 350.367,374.596 344.5,371.5C 339.15,368.472 333.816,365.472 328.5,362.5C 323.033,358.929 317.367,355.596 311.5,352.5C 306.693,349.26 301.693,346.26 296.5,343.5C 295.289,342.726 295.289,341.893 296.5,341C 336.664,318.086 376.664,294.919 416.5,271.5C 456.833,294.833 497.167,318.167 537.5,341.5C 538.833,342.167 538.833,342.833 537.5,343.5C 532.271,346.274 527.271,349.274 522.5,352.5 Z"/></g>
<g><path style="opacity:1" fill="#2f7fd6" d="M 571.5,292.5 C 571.5,299.167 571.5,305.833 571.5,312.5C 570.417,312.461 569.417,312.127 568.5,311.5C 567.52,312.981 566.353,314.315 565,315.5C 564.333,314.167 563.667,314.167 563,315.5C 562.195,313.099 561.362,313.266 560.5,316C 558.608,316.973 556.608,317.64 554.5,318C 553.167,318.667 553.167,319.333 554.5,320C 553.072,320.579 551.738,320.412 550.5,319.5C 550.5,313.833 550.5,308.167 550.5,302.5C 551.117,302.611 551.617,302.944 552,303.5C 555.815,301.523 559.148,298.857 562,295.5C 562.333,296.167 562.667,296.833 563,297.5C 563.84,294.536 564.84,294.203 566,296.5C 567.642,294.898 569.475,293.565 571.5,292.5 Z"/></g>
<g><path style="opacity:1" fill="#1cabb7" d="M 282.5,293.5 C 282.833,293.5 283.167,293.5 283.5,293.5C 283.5,303.5 283.5,313.5 283.5,323.5C 276.167,327.833 268.833,332.167 261.5,336.5C 261.5,328.167 261.5,319.833 261.5,311.5C 262.873,311.657 264.207,311.49 265.5,311C 264.66,309.334 265.16,309.167 267,310.5C 267.419,309.328 268.085,308.328 269,307.5C 270.749,308.299 272.082,307.632 273,305.5C 274.749,306.299 276.082,305.632 277,303.5C 277.333,303.833 277.667,304.167 278,304.5C 279.101,302.606 280.434,301.939 282,302.5C 282.498,299.518 282.665,296.518 282.5,293.5 Z"/></g>
<g><path style="opacity:1" fill="#327ada" d="M 571.5,312.5 C 571.5,320.167 571.5,327.833 571.5,335.5C 564.004,332.255 557.004,328.255 550.5,323.5C 550.5,322.167 550.5,320.833 550.5,319.5C 551.738,320.412 553.072,320.579 554.5,320C 553.167,319.333 553.167,318.667 554.5,318C 556.608,317.64 558.608,316.973 560.5,316C 561.362,313.266 562.195,313.099 563,315.5C 563.667,314.167 564.333,314.167 565,315.5C 566.353,314.315 567.52,312.981 568.5,311.5C 569.417,312.127 570.417,312.461 571.5,312.5 Z"/></g>
<g><path style="opacity:1" fill="#239fc0" d="M 261.5,336.5 C 261.5,344.833 261.5,353.167 261.5,361.5C 255.965,364.767 250.298,367.767 244.5,370.5C 243.829,369.153 243.829,367.986 244.5,367C 241.833,366.333 241.833,365.667 244.5,365C 243.5,364 242.5,363 241.5,362C 241.132,359.967 241.132,357.8 241.5,355.5C 240.872,353.742 239.872,352.242 238.5,351C 239.056,350.617 239.389,350.117 239.5,349.5C 246.496,344.666 253.829,340.333 261.5,336.5 Z"/></g>
<g><path style="opacity:1" fill="#41a5c5" d="M 571.5,168.5 C 572.497,186.659 572.83,204.992 572.5,223.5C 572.333,261.168 572.5,298.835 573,336.5C 583.054,342.727 593.22,348.727 603.5,354.5C 603.64,356.124 602.973,357.29 601.5,358C 603.991,358.626 603.991,359.459 601.5,360.5C 602.902,361.842 602.569,362.676 600.5,363C 601.167,363.333 601.833,363.667 602.5,364C 600.475,365.194 600.141,366.694 601.5,368.5C 599.009,369.541 599.009,370.374 601.5,371C 599.875,371.853 599.542,372.853 600.5,374C 599.756,375.039 598.756,375.539 597.5,375.5C 589.324,370.912 580.991,366.578 572.5,362.5C 571.529,353.584 571.196,344.584 571.5,335.5C 571.5,327.833 571.5,320.167 571.5,312.5C 571.5,305.833 571.5,299.167 571.5,292.5C 571.5,284.5 571.5,276.5 571.5,268.5C 571.5,263.5 571.5,258.5 571.5,253.5C 571.5,247.5 571.5,241.5 571.5,235.5C 571.5,228.833 571.5,222.167 571.5,215.5C 571.5,208.833 571.5,202.167 571.5,195.5C 571.5,189.5 571.5,183.5 571.5,177.5C 571.5,174.5 571.5,171.5 571.5,168.5 Z"/></g>
<g><path style="opacity:1" fill="#20a6bb" d="M 239.5,349.5 C 239.389,350.117 239.056,350.617 238.5,351C 239.872,352.242 240.872,353.742 241.5,355.5C 241.132,357.8 241.132,359.967 241.5,362C 242.5,363 243.5,364 244.5,365C 241.833,365.667 241.833,366.333 244.5,367C 243.829,367.986 243.829,369.153 244.5,370.5C 240.167,373.669 235.5,376.336 230.5,378.5C 229.209,377.527 229.209,376.527 230.5,375.5C 230.032,373.866 229.032,372.7 227.5,372C 228.174,370.249 228.507,368.583 228.5,367C 225.833,366.333 225.833,365.667 228.5,365C 226.606,363.899 225.939,362.566 226.5,361C 225.695,359.887 225.028,358.721 224.5,357.5C 229.368,354.566 234.368,351.9 239.5,349.5 Z"/></g>
<g><path style="opacity:1" fill="#21a6bb" d="M 603.5,354.5 C 609.206,357.347 614.539,360.68 619.5,364.5C 619.047,365.458 618.381,366.292 617.5,367C 619.513,368.791 619.513,370.125 617.5,371C 618.214,372.343 617.88,373.676 616.5,375C 616.833,376.667 617.167,378.333 617.5,380C 615.431,380.324 615.098,381.158 616.5,382.5C 616.058,383.739 615.391,384.739 614.5,385.5C 608.332,382.92 602.665,379.586 597.5,375.5C 598.756,375.539 599.756,375.039 600.5,374C 599.542,372.853 599.875,371.853 601.5,371C 599.009,370.374 599.009,369.541 601.5,368.5C 600.141,366.694 600.475,365.194 602.5,364C 601.833,363.667 601.167,363.333 600.5,363C 602.569,362.676 602.902,361.842 601.5,360.5C 603.991,359.459 603.991,358.626 601.5,358C 602.973,357.29 603.64,356.124 603.5,354.5 Z"/></g>
<g><path style="opacity:1" fill="#1dcaa5" d="M 311.5,352.5 C 317.367,355.596 323.033,358.929 328.5,362.5C 327.359,363.339 326.026,364.006 324.5,364.5C 312.452,364.005 300.119,363.672 287.5,363.5C 285.983,363.489 284.816,362.823 284,361.5C 283.5,408.832 283.333,456.165 283.5,503.5C 282.197,453.655 282.197,403.655 283.5,353.5C 293.015,353.827 302.348,353.494 311.5,352.5 Z"/></g>
<g><path style="opacity:1" fill="#0fc5a2" d="M 522.5,352.5 C 531.324,353.33 540.324,353.83 549.5,354C 550.435,356.381 550.768,358.881 550.5,361.5C 549.508,361.328 548.842,361.662 548.5,362.5C 547.609,363.11 546.609,363.443 545.5,363.5C 533.039,363.384 520.706,363.718 508.5,364.5C 507.081,363.995 506.415,362.995 506.5,361.5C 511.502,357.997 516.835,354.997 522.5,352.5 Z"/></g>
<g><path style="opacity:1" fill="#f0f0f0" d="M 548.5,362.5 C 549.499,409.33 549.832,456.33 549.5,503.5C 508.981,527.014 468.481,550.681 428,574.5C 427.506,572.866 427.34,571.199 427.5,569.5C 427.5,562.5 427.5,555.5 427.5,548.5C 427.5,542.5 427.5,536.5 427.5,530.5C 427.5,523.5 427.5,516.5 427.5,509.5C 427.5,503.167 427.5,496.833 427.5,490.5C 427.5,485.833 427.5,481.167 427.5,476.5C 427.5,468.167 427.5,459.833 427.5,451.5C 441.243,445.753 448.243,435.42 448.5,420.5C 456.369,416.07 464.036,411.403 471.5,406.5C 474.331,405.921 476.664,404.588 478.5,402.5C 484.668,399.92 490.335,396.586 495.5,392.5C 501.165,390.003 506.498,387.003 511.5,383.5C 518.097,380.225 524.43,376.558 530.5,372.5C 535.767,369.89 540.767,366.89 545.5,363.5C 546.609,363.443 547.609,363.11 548.5,362.5 Z"/></g>
<g><path style="opacity:1" fill="#b8e9db" d="M 548.5,362.5 C 548.842,361.662 549.508,361.328 550.5,361.5C 550.832,409.003 550.499,456.336 549.5,503.5C 549.832,456.33 549.499,409.33 548.5,362.5 Z"/></g>
<g><path style="opacity:1" fill="#eeeeee" d="M 572.5,362.5 C 580.991,366.578 589.324,370.912 597.5,375.5C 602.665,379.586 608.332,382.92 614.5,385.5C 619.994,389.082 625.661,392.415 631.5,395.5C 636.502,399.003 641.835,402.003 647.5,404.5C 653.13,408.654 659.13,412.321 665.5,415.5C 670.833,418.5 676.167,421.5 681.5,424.5C 685.517,427.267 689.684,429.934 694,432.5C 694.499,437.155 694.666,441.821 694.5,446.5C 694.5,486.5 694.5,526.5 694.5,566.5C 694.83,573.532 694.497,580.532 693.5,587.5C 690.432,588.691 687.765,590.358 685.5,592.5C 679.332,595.08 673.665,598.414 668.5,602.5C 660.931,606.07 653.597,610.07 646.5,614.5C 640.33,618.419 633.997,622.086 627.5,625.5C 620.798,629.515 614.131,633.515 607.5,637.5C 599.698,641.568 592.032,645.902 584.5,650.5C 578.13,653.679 572.13,657.346 566.5,661.5C 564.634,662.014 562.8,662.68 561,663.5C 557.387,661.942 553.887,660.275 550.5,658.5C 544.43,654.442 538.097,650.775 531.5,647.5C 526.498,643.997 521.165,640.997 515.5,638.5C 510.455,634.805 505.122,631.472 499.5,628.5C 495.5,626.167 491.5,623.833 487.5,621.5C 479.996,616.913 472.329,612.58 464.5,608.5C 459.666,605.248 454.666,602.248 449.5,599.5C 445.882,597.863 442.549,595.863 439.5,593.5C 483.109,567.355 527.109,541.689 571.5,516.5C 572.5,465.171 572.833,413.838 572.5,362.5 Z"/></g>
<g><path style="opacity:1" fill="#20acb7" d="M 224.5,357.5 C 225.028,358.721 225.695,359.887 226.5,361C 225.939,362.566 226.606,363.899 228.5,365C 225.833,365.667 225.833,366.333 228.5,367C 228.507,368.583 228.174,370.249 227.5,372C 229.032,372.7 230.032,373.866 230.5,375.5C 229.209,376.527 229.209,377.527 230.5,378.5C 226.21,381.985 221.543,384.985 216.5,387.5C 215.465,385.795 215.465,384.128 216.5,382.5C 214.545,380.332 213.879,377.998 214.5,375.5C 214.032,373.866 213.032,372.7 211.5,372C 212.174,370.249 212.507,368.583 212.5,367C 211.552,366.517 210.552,366.351 209.5,366.5C 214.299,363.263 219.299,360.263 224.5,357.5 Z"/></g>
<g><path style="opacity:1" fill="#f1f1f1" d="M 287.5,363.5 C 292.994,367.082 298.661,370.415 304.5,373.5C 309.502,377.003 314.835,380.003 320.5,382.5C 325.665,386.586 331.332,389.92 337.5,392.5C 343.464,396.152 349.464,399.819 355.5,403.5C 357.833,404.833 360.167,406.167 362.5,407.5C 370.699,412.432 379.032,417.099 387.5,421.5C 387.775,434.765 393.775,444.432 405.5,450.5C 405.5,465.833 405.5,481.167 405.5,496.5C 405.5,511.833 405.5,527.167 405.5,542.5C 405.828,553.014 405.494,563.347 404.5,573.5C 364.167,550.167 323.833,526.833 283.5,503.5C 283.333,456.165 283.5,408.832 284,361.5C 284.816,362.823 285.983,363.489 287.5,363.5 Z"/></g>
<g><path style="opacity:1" fill="#1eacb7" d="M 619.5,364.5 C 625.83,367.33 631.83,370.663 637.5,374.5C 635.805,375.798 634.138,377.298 632.5,379C 633.167,379.333 633.833,379.667 634.5,380C 633.167,380.667 633.167,381.333 634.5,382C 633.939,383.676 632.939,385.009 631.5,386C 632.167,386.333 632.833,386.667 633.5,387C 634.061,388.566 633.394,389.899 631.5,391C 631.736,392.451 631.736,393.951 631.5,395.5C 625.661,392.415 619.994,389.082 614.5,385.5C 615.391,384.739 616.058,383.739 616.5,382.5C 615.098,381.158 615.431,380.324 617.5,380C 617.167,378.333 616.833,376.667 616.5,375C 617.88,373.676 618.214,372.343 617.5,371C 619.513,370.125 619.513,368.791 617.5,367C 618.381,366.292 619.047,365.458 619.5,364.5 Z"/></g>
<g><path style="opacity:1" fill="#1bb2b2" d="M 209.5,366.5 C 210.552,366.351 211.552,366.517 212.5,367C 212.507,368.583 212.174,370.249 211.5,372C 213.032,372.7 214.032,373.866 214.5,375.5C 213.879,377.998 214.545,380.332 216.5,382.5C 215.465,384.128 215.465,385.795 216.5,387.5C 211.632,390.434 206.632,393.1 201.5,395.5C 198.639,388.48 196.639,381.48 195.5,374.5C 199.887,371.469 204.554,368.803 209.5,366.5 Z"/></g>
<g><path style="opacity:1" fill="#15b9ac" d="M 328.5,362.5 C 333.816,365.472 339.15,368.472 344.5,371.5C 344.389,372.117 344.056,372.617 343.5,373C 330.504,373.5 317.504,373.667 304.5,373.5C 298.661,370.415 292.994,367.082 287.5,363.5C 300.119,363.672 312.452,364.005 324.5,364.5C 326.026,364.006 327.359,363.339 328.5,362.5 Z"/></g>
<g><path style="opacity:1" fill="#16b9ac" d="M 506.5,361.5 C 506.415,362.995 507.081,363.995 508.5,364.5C 520.706,363.718 533.039,363.384 545.5,363.5C 540.767,366.89 535.767,369.89 530.5,372.5C 517.52,373.354 504.52,373.687 491.5,373.5C 491.5,372.5 491.5,371.5 491.5,370.5C 496.216,367.137 501.216,364.137 506.5,361.5 Z"/></g>
<g><path style="opacity:1" fill="#1bb2b2" d="M 637.5,374.5 C 643.339,377.585 649.006,380.918 654.5,384.5C 653.711,384.783 653.044,385.283 652.5,386C 651.742,388.528 651.742,390.861 652.5,393C 652.045,395.312 651.045,397.312 649.5,399C 650.174,400.751 650.507,402.417 650.5,404C 649.552,404.483 648.552,404.649 647.5,404.5C 641.835,402.003 636.502,399.003 631.5,395.5C 631.736,393.951 631.736,392.451 631.5,391C 633.394,389.899 634.061,388.566 633.5,387C 632.833,386.667 632.167,386.333 631.5,386C 632.939,385.009 633.939,383.676 634.5,382C 633.167,381.333 633.167,380.667 634.5,380C 633.833,379.667 633.167,379.333 632.5,379C 634.138,377.298 635.805,375.798 637.5,374.5 Z"/></g>
<g><path style="opacity:1" fill="#f0f1f1" d="M 261.5,361.5 C 261.167,413.171 261.5,464.838 262.5,516.5C 306.563,542.193 350.563,567.86 394.5,593.5C 392.167,594.833 389.833,596.167 387.5,597.5C 381.633,600.596 375.967,603.929 370.5,607.5C 366.465,609.848 362.465,612.182 358.5,614.5C 353.216,617.137 348.216,620.137 343.5,623.5C 338.5,625.664 333.833,628.331 329.5,631.5C 324.5,633.664 319.833,636.331 315.5,639.5C 309.87,641.981 304.537,644.981 299.5,648.5C 294.963,650.93 290.63,653.597 286.5,656.5C 281.932,658.403 277.598,660.736 273.5,663.5C 265.43,660.298 257.764,656.298 250.5,651.5C 244.127,647.313 237.461,643.647 230.5,640.5C 224.87,636.346 218.87,632.679 212.5,629.5C 205.167,625.167 197.833,620.833 190.5,616.5C 173.279,606.638 156.112,596.638 139,586.5C 138.333,535.167 138.333,483.833 139,432.5C 140.615,431.614 142.115,430.614 143.5,429.5C 148.701,426.737 153.701,423.737 158.5,420.5C 162.966,418.434 167.299,416.1 171.5,413.5C 176.701,410.737 181.701,407.737 186.5,404.5C 191.701,401.737 196.701,398.737 201.5,395.5C 206.632,393.1 211.632,390.434 216.5,387.5C 221.543,384.985 226.21,381.985 230.5,378.5C 235.5,376.336 240.167,373.669 244.5,370.5C 250.298,367.767 255.965,364.767 261.5,361.5 Z"/></g>
<g><path style="opacity:1" fill="#17b9ad" d="M 195.5,374.5 C 196.639,381.48 198.639,388.48 201.5,395.5C 196.701,398.737 191.701,401.737 186.5,404.5C 185.637,403.06 185.637,401.726 186.5,400.5C 186.023,399.522 185.357,398.689 184.5,398C 185.634,396.984 185.301,396.317 183.5,396C 184.167,395.667 184.833,395.333 185.5,395C 184.5,394 183.5,393 182.5,392C 185.167,391.333 185.167,390.667 182.5,390C 183.248,386.961 181.914,385.128 178.5,384.5C 183.967,380.929 189.633,377.596 195.5,374.5 Z"/></g>
<g><path style="opacity:1" fill="#1cadb5" d="M 491.5,370.5 C 491.5,371.5 491.5,372.5 491.5,373.5C 504.52,373.687 517.52,373.354 530.5,372.5C 524.43,376.558 518.097,380.225 511.5,383.5C 498.791,382.209 486.291,382.209 474,383.5C 473.283,382.956 472.783,382.289 472.5,381.5C 478.334,377.079 484.668,373.412 491.5,370.5 Z"/></g>
<g><path style="opacity:1" fill="#1badb5" d="M 344.5,371.5 C 350.367,374.596 356.033,377.929 361.5,381.5C 359.603,382.805 357.269,383.471 354.5,383.5C 343.223,383.056 331.889,382.723 320.5,382.5C 314.835,380.003 309.502,377.003 304.5,373.5C 317.504,373.667 330.504,373.5 343.5,373C 344.056,372.617 344.389,372.117 344.5,371.5 Z"/></g>
<g><path style="opacity:1" fill="#18bfa9" d="M 178.5,384.5 C 181.914,385.128 183.248,386.961 182.5,390C 185.167,390.667 185.167,391.333 182.5,392C 183.5,393 184.5,394 185.5,395C 184.833,395.333 184.167,395.667 183.5,396C 185.301,396.317 185.634,396.984 184.5,398C 185.357,398.689 186.023,399.522 186.5,400.5C 185.637,401.726 185.637,403.06 186.5,404.5C 181.701,407.737 176.701,410.737 171.5,413.5C 171.64,411.876 170.973,410.71 169.5,410C 170.448,409.517 171.448,409.351 172.5,409.5C 171.273,404.534 170.106,399.534 169,394.5C 168.623,393.058 167.79,392.058 166.5,391.5C 170.164,388.665 174.164,386.332 178.5,384.5 Z"/></g>
<g><path style="opacity:1" fill="#21a1be" d="M 361.5,381.5 C 366.816,384.472 372.15,387.472 377.5,390.5C 374.392,392.171 370.892,393.171 367,393.5C 357.683,392.85 347.85,392.517 337.5,392.5C 331.332,389.92 325.665,386.586 320.5,382.5C 331.889,382.723 343.223,383.056 354.5,383.5C 357.269,383.471 359.603,382.805 361.5,381.5 Z"/></g>
<g><path style="opacity:1" fill="#18b9ad" d="M 654.5,384.5 C 660.668,387.08 666.335,390.414 671.5,394.5C 668.314,395.537 667.314,397.537 668.5,400.5C 666.027,402.098 666.027,403.598 668.5,405C 667.944,407.237 666.944,409.237 665.5,411C 665.736,412.451 665.736,413.951 665.5,415.5C 659.13,412.321 653.13,408.654 647.5,404.5C 648.552,404.649 649.552,404.483 650.5,404C 650.507,402.417 650.174,400.751 649.5,399C 651.045,397.312 652.045,395.312 652.5,393C 651.742,390.861 651.742,388.528 652.5,386C 653.044,385.283 653.711,384.783 654.5,384.5 Z"/></g>
<g><path style="opacity:1" fill="#21a1be" d="M 472.5,381.5 C 472.783,382.289 473.283,382.956 474,383.5C 486.291,382.209 498.791,382.209 511.5,383.5C 506.498,387.003 501.165,390.003 495.5,392.5C 494.883,392.389 494.383,392.056 494,391.5C 493.161,392.624 491.994,393.291 490.5,393.5C 480.727,392.215 471.227,392.215 462,393.5C 459.931,392.736 457.764,392.236 455.5,392C 456.056,391.617 456.389,391.117 456.5,390.5C 461.502,386.997 466.835,383.997 472.5,381.5 Z"/></g>
<g><path style="opacity:1" fill="#08d398" d="M 439.5,399.5 C 440.167,400.833 441.167,401.833 442.5,402.5C 443.11,404.434 444.11,406.101 445.5,407.5C 447.526,411.581 448.526,415.915 448.5,420.5C 448.243,435.42 441.243,445.753 427.5,451.5C 420.059,453.063 412.725,452.73 405.5,450.5C 393.775,444.432 387.775,434.765 387.5,421.5C 387.264,416.548 388.264,411.881 390.5,407.5C 391.89,406.101 392.89,404.434 393.5,402.5C 394.5,402.167 395.167,401.5 395.5,400.5C 409.845,388.859 424.512,388.525 439.5,399.5 Z"/></g>
<g><path style="opacity:1" fill="#13c4a4" d="M 166.5,391.5 C 167.79,392.058 168.623,393.058 169,394.5C 170.106,399.534 171.273,404.534 172.5,409.5C 171.448,409.351 170.448,409.517 169.5,410C 170.973,410.71 171.64,411.876 171.5,413.5C 167.299,416.1 162.966,418.434 158.5,420.5C 160.077,418.198 159.411,416.698 156.5,416C 157.833,413.333 157.833,410.667 156.5,408C 155.833,406.667 154.833,405.667 153.5,405C 155.891,404.309 155.891,403.309 153.5,402C 154.883,400.539 154.549,399.706 152.5,399.5C 156.833,396.331 161.5,393.664 166.5,391.5 Z"/></g>
<g><path style="opacity:1" fill="#15bfa8" d="M 671.5,394.5 C 677.165,396.997 682.498,399.997 687.5,403.5C 684.803,405.893 683.803,408.727 684.5,412C 682.68,414.605 682.014,417.272 682.5,420C 681.833,420.333 681.167,420.667 680.5,421C 681.337,422.011 681.67,423.178 681.5,424.5C 676.167,421.5 670.833,418.5 665.5,415.5C 665.736,413.951 665.736,412.451 665.5,411C 666.944,409.237 667.944,407.237 668.5,405C 666.027,403.598 666.027,402.098 668.5,400.5C 667.314,397.537 668.314,395.537 671.5,394.5 Z"/></g>
<g><path style="opacity:1" fill="#2895c7" d="M 377.5,390.5 C 383.5,393.833 389.5,397.167 395.5,400.5C 395.167,401.5 394.5,402.167 393.5,402.5C 380.656,402.171 367.989,402.505 355.5,403.5C 349.464,399.819 343.464,396.152 337.5,392.5C 347.85,392.517 357.683,392.85 367,393.5C 370.892,393.171 374.392,392.171 377.5,390.5 Z"/></g>
<g><path style="opacity:1" fill="#2895c7" d="M 456.5,390.5 C 456.389,391.117 456.056,391.617 455.5,392C 457.764,392.236 459.931,392.736 462,393.5C 471.227,392.215 480.727,392.215 490.5,393.5C 491.994,393.291 493.161,392.624 494,391.5C 494.383,392.056 494.883,392.389 495.5,392.5C 490.335,396.586 484.668,399.92 478.5,402.5C 466.5,402.5 454.5,402.5 442.5,402.5C 441.167,401.833 440.167,400.833 439.5,399.5C 445.008,396.245 450.675,393.245 456.5,390.5 Z"/></g>
<g><path style="opacity:1" fill="#12cba0" d="M 152.5,399.5 C 154.549,399.706 154.883,400.539 153.5,402C 155.891,403.309 155.891,404.309 153.5,405C 154.833,405.667 155.833,406.667 156.5,408C 157.833,410.667 157.833,413.333 156.5,416C 159.411,416.698 160.077,418.198 158.5,420.5C 153.701,423.737 148.701,426.737 143.5,429.5C 146.214,426.589 145.881,423.923 142.5,421.5C 142.977,420.522 143.643,419.689 144.5,419C 141.311,418.019 140.978,416.686 143.5,415C 141.519,414.395 141.185,413.395 142.5,412C 141.672,411.085 140.672,410.419 139.5,410C 140.167,409.667 140.833,409.333 141.5,409C 140.207,408.51 138.873,408.343 137.5,408.5C 142.216,405.137 147.216,402.137 152.5,399.5 Z"/></g>
<g><path style="opacity:1" fill="#2b8ecc" d="M 355.5,403.5 C 367.989,402.505 380.656,402.171 393.5,402.5C 392.89,404.434 391.89,406.101 390.5,407.5C 381.167,406.167 371.833,406.167 362.5,407.5C 360.167,406.167 357.833,404.833 355.5,403.5 Z"/></g>
<g><path style="opacity:1" fill="#298dcc" d="M 442.5,402.5 C 454.5,402.5 466.5,402.5 478.5,402.5C 476.664,404.588 474.331,405.921 471.5,406.5C 462.651,406.174 453.984,406.507 445.5,407.5C 444.11,406.101 443.11,404.434 442.5,402.5 Z"/></g>
<g><path style="opacity:1" fill="#14c5a4" d="M 687.5,403.5 C 693.005,405.749 698.005,408.749 702.5,412.5C 700.904,415.785 699.904,418.951 699.5,422C 700.167,422.333 700.833,422.667 701.5,423C 698.751,424.346 698.417,425.68 700.5,427C 699.833,427.333 699.167,427.667 698.5,428C 698.833,429 699.167,430 699.5,431C 697.977,433.434 696.977,436.101 696.5,439C 697.191,441.774 696.525,444.274 694.5,446.5C 694.666,441.821 694.499,437.155 694,432.5C 689.684,429.934 685.517,427.267 681.5,424.5C 681.67,423.178 681.337,422.011 680.5,421C 681.167,420.667 681.833,420.333 682.5,420C 682.014,417.272 682.68,414.605 684.5,412C 683.803,408.727 684.803,405.893 687.5,403.5 Z"/></g>
<g><path style="opacity:1" fill="#2f86d2" d="M 362.5,407.5 C 371.833,406.167 381.167,406.167 390.5,407.5C 388.264,411.881 387.264,416.548 387.5,421.5C 379.032,417.099 370.699,412.432 362.5,407.5 Z"/></g>
<g><path style="opacity:1" fill="#2f86d2" d="M 471.5,406.5 C 464.036,411.403 456.369,416.07 448.5,420.5C 448.526,415.915 447.526,411.581 445.5,407.5C 453.984,406.507 462.651,406.174 471.5,406.5 Z"/></g>
<g><path style="opacity:1" fill="#08d19a" d="M 137.5,408.5 C 138.873,408.343 140.207,408.51 141.5,409C 140.833,409.333 140.167,409.667 139.5,410C 140.672,410.419 141.672,411.085 142.5,412C 141.185,413.395 141.519,414.395 143.5,415C 140.978,416.686 141.311,418.019 144.5,419C 143.643,419.689 142.977,420.522 142.5,421.5C 145.881,423.923 146.214,426.589 143.5,429.5C 142.115,430.614 140.615,431.614 139,432.5C 138.333,483.833 138.333,535.167 139,586.5C 156.112,596.638 173.279,606.638 190.5,616.5C 192.079,620.083 193.079,623.583 193.5,627C 193.355,627.772 193.022,628.439 192.5,629C 193.5,630 194.5,631 195.5,632C 195.579,633.907 195.246,635.907 194.5,638C 196.301,638.317 196.634,638.984 195.5,640C 196.167,641.333 196.833,642.667 197.5,644C 196.906,644.464 196.239,644.631 195.5,644.5C 169.554,629.727 143.721,614.727 118,599.5C 117.5,539.501 117.333,479.501 117.5,419.5C 123.873,415.313 130.539,411.647 137.5,408.5 Z"/></g>
<g><path style="opacity:1" fill="#17cca0" d="M 702.5,412.5 C 707.09,414.574 711.59,416.907 716,419.5C 716.5,465.165 716.667,510.832 716.5,556.5C 716.829,571.01 716.496,585.343 715.5,599.5C 715.667,552.165 715.5,504.832 715,457.5C 714.92,459.248 714.087,460.915 712.5,462.5C 713.253,466.545 713.253,470.378 712.5,474C 710.606,475.079 710.273,476.413 711.5,478C 709.436,479.018 709.102,480.351 710.5,482C 708.244,483.834 708.244,485.501 710.5,487C 708.699,487.317 708.366,487.984 709.5,489C 708.707,490.085 708.04,491.252 707.5,492.5C 706.41,496.046 706.41,499.546 707.5,503C 706.833,504 706.167,505 705.5,506C 705.5,507.667 705.5,509.333 705.5,511C 703.487,511.875 703.487,513.209 705.5,515C 703.298,518.938 701.964,522.938 701.5,527C 702.244,529.851 702.244,532.517 701.5,535C 698.833,535.667 698.833,536.333 701.5,537C 700.5,538 699.5,539 698.5,540C 699.167,540.333 699.833,540.667 700.5,541C 698.854,542.555 698.521,544.221 699.5,546C 698.833,546.333 698.167,546.667 697.5,547C 699.872,549.511 699.538,551.844 696.5,554C 697.167,554.667 697.833,555.333 698.5,556C 697.061,556.991 696.061,558.324 695.5,560C 698.167,560.667 698.167,561.333 695.5,562C 695.833,562.333 696.167,562.667 696.5,563C 695.915,564.302 695.249,565.469 694.5,566.5C 694.5,526.5 694.5,486.5 694.5,446.5C 696.525,444.274 697.191,441.774 696.5,439C 696.977,436.101 697.977,433.434 699.5,431C 699.167,430 698.833,429 698.5,428C 699.167,427.667 699.833,427.333 700.5,427C 698.417,425.68 698.751,424.346 701.5,423C 700.833,422.667 700.167,422.333 699.5,422C 699.904,418.951 700.904,415.785 702.5,412.5 Z"/></g>
<g><path style="opacity:0.998" fill="#efefef" d="M 117.5,419.5 C 117.333,479.501 117.5,539.501 118,599.5C 143.721,614.727 169.554,629.727 195.5,644.5C 202.905,649.226 210.572,653.559 218.5,657.5C 223.216,660.863 228.216,663.863 233.5,666.5C 240.905,671.226 248.572,675.559 256.5,679.5C 260.937,682.559 265.603,685.392 270.5,688C 273.065,688.609 275.399,688.109 277.5,686.5C 282.203,683.486 286.87,680.486 291.5,677.5C 297.165,675.003 302.498,672.003 307.5,668.5C 312.429,666.225 317.096,663.559 321.5,660.5C 326.372,658.571 330.705,655.905 334.5,652.5C 340.165,650.003 345.498,647.003 350.5,643.5C 356.005,641.251 361.005,638.251 365.5,634.5C 368.992,633.59 371.992,631.924 374.5,629.5C 381.671,625.749 388.671,621.749 395.5,617.5C 402.534,613.988 409.201,609.988 415.5,605.5C 416.167,605.5 416.833,605.5 417.5,605.5C 425.832,611.002 434.499,616.002 443.5,620.5C 448.665,624.586 454.332,627.92 460.5,630.5C 467.004,635.255 474.004,639.255 481.5,642.5C 485.164,645.335 489.164,647.668 493.5,649.5C 493.833,650.5 494.5,651.167 495.5,651.5C 494.836,653.867 493.503,655.867 491.5,657.5C 492.364,659.197 493.697,660.363 495.5,661C 495.81,662.874 495.31,664.707 494,666.5C 493.374,664.009 492.541,664.009 491.5,666.5C 491.167,665.833 490.833,665.167 490.5,664.5C 489.667,665.5 488.833,666.5 488,667.5C 487.667,666.833 487.333,666.167 487,665.5C 486,666.833 485,666.833 484,665.5C 483.147,667.125 482.147,667.458 481,666.5C 480.692,667.308 480.192,667.975 479.5,668.5C 478.575,667.359 477.741,667.359 477,668.5C 476.667,667.833 476.333,667.167 476,666.5C 473.586,670.414 471.586,674.081 470,677.5C 469.259,676.359 468.425,676.359 467.5,677.5C 466.572,675.665 465.406,675.332 464,676.5C 462,675.833 460.667,674.5 460,672.5C 459.395,674.481 458.395,674.815 457,673.5C 454.556,675.723 453.89,678.389 455,681.5C 454,682.833 453,682.833 452,681.5C 451.147,683.125 450.147,683.458 449,682.5C 448.692,683.308 448.192,683.975 447.5,684.5C 446.575,683.359 445.741,683.359 445,684.5C 444.667,683.833 444.333,683.167 444,682.5C 441.586,686.414 439.586,690.081 438,693.5C 437.259,692.359 436.425,692.359 435.5,693.5C 434.572,691.665 433.406,691.332 432,692.5C 430,691.833 428.667,690.5 428,688.5C 427.395,690.481 426.395,690.815 425,689.5C 424.044,690.579 423.211,691.745 422.5,693C 423.833,694.667 423.833,696.333 422.5,698C 421.551,698.617 420.718,698.451 420,697.5C 419.147,699.125 418.147,699.458 417,698.5C 416.692,699.308 416.192,699.975 415.5,700.5C 414.575,699.359 413.741,699.359 413,700.5C 412.667,699.833 412.333,699.167 412,698.5C 409.586,702.414 407.586,706.081 406,709.5C 405.259,708.359 404.425,708.359 403.5,709.5C 402.572,707.665 401.406,707.332 400,708.5C 398,707.833 396.667,706.5 396,704.5C 395.395,706.481 394.395,706.815 393,705.5C 390.556,707.723 389.89,710.389 391,713.5C 390,714.833 389,714.833 388,713.5C 387.147,715.125 386.147,715.458 385,714.5C 384.692,715.308 384.192,715.975 383.5,716.5C 382.575,715.359 381.741,715.359 381,716.5C 380.667,715.833 380.333,715.167 380,714.5C 377.586,718.414 375.586,722.081 374,725.5C 373.259,724.359 372.425,724.359 371.5,725.5C 370.572,723.665 369.406,723.332 368,724.5C 366,723.833 364.667,722.5 364,720.5C 363.395,722.481 362.395,722.815 361,721.5C 358.556,723.723 357.89,726.389 359,729.5C 358,730.833 357,730.833 356,729.5C 355.147,731.125 354.147,731.458 353,730.5C 352.692,731.308 352.192,731.975 351.5,732.5C 350.575,731.359 349.741,731.359 349,732.5C 348.667,731.833 348.333,731.167 348,730.5C 346.325,734.004 344.658,737.004 343,739.5C 342.751,738.376 342.251,737.376 341.5,736.5C 337.538,738.107 336.871,737.441 339.5,734.5C 338.726,733.289 337.893,733.289 337,734.5C 336.667,733.833 336.333,733.167 336,732.5C 334.011,734.324 332.177,736.324 330.5,738.5C 329.575,737.359 328.741,737.359 328,738.5C 327.626,739.416 327.126,740.25 326.5,741C 327.554,742.388 327.72,743.888 327,745.5C 325,743.5 323,741.5 321,739.5C 320.167,740.333 319.333,741.167 318.5,742C 319.833,743.333 319.833,744.667 318.5,746C 320.271,746.535 320.604,747.369 319.5,748.5C 318.575,747.359 317.741,747.359 317,748.5C 316.667,747.833 316.333,747.167 316,746.5C 315.333,747.833 314.667,749.167 314,750.5C 313.667,750.167 313.333,749.833 313,749.5C 311.333,750.167 309.667,750.833 308,751.5C 307.395,749.519 306.395,749.185 305,750.5C 304.577,749.044 303.744,748.544 302.5,749C 302.833,749.333 303.167,749.667 303.5,750C 301.36,750.973 299.693,752.473 298.5,754.5C 297.575,753.359 296.741,753.359 296,754.5C 295.626,755.416 295.126,756.25 294.5,757C 295.554,758.388 295.72,759.888 295,761.5C 293,759.5 291,757.5 289,755.5C 286.79,756.632 286.29,758.132 287.5,760C 286.763,762.799 285.93,762.966 285,760.5C 284.577,761.956 283.744,762.456 282.5,762C 283.696,761.346 283.696,760.846 282.5,760.5C 281.618,761.76 280.618,762.926 279.5,764C 277.112,764.303 274.945,765.137 273,766.5C 272.692,765.692 272.192,765.025 271.5,764.5C 270.246,766.187 268.58,768.187 266.5,770.5C 265.914,770.291 265.414,769.957 265,769.5C 262.556,771.723 261.89,774.389 263,777.5C 261,775.5 259,773.5 257,771.5C 254.79,772.632 254.29,774.132 255.5,776C 254.763,778.799 253.93,778.966 253,776.5C 252.577,777.956 251.744,778.456 250.5,778C 251.696,777.346 251.696,776.846 250.5,776.5C 249.618,777.76 248.618,778.926 247.5,780C 245.112,780.303 242.945,781.137 241,782.5C 240.692,781.692 240.192,781.025 239.5,780.5C 238.246,782.187 236.58,784.187 234.5,786.5C 233.914,786.291 233.414,785.957 233,785.5C 232,786.833 231,788.167 230,789.5C 228.127,790.089 226.46,789.422 225,787.5C 223.955,788.373 223.122,789.373 222.5,790.5C 134.901,743.732 71.401,674.732 32,583.5C 20.1589,555.477 11.6589,526.477 6.5,496.5C 6.87952,495.867 7.21285,495.2 7.5,494.5C 10.0779,496.574 11.5779,499.24 12,502.5C 12.1992,500.598 13.0325,499.098 14.5,498C 13.8333,497.333 13.1667,496.667 12.5,496C 14,494.167 15.5,492.333 17,490.5C 17.3333,490.833 17.6667,491.167 18,491.5C 19.46,489.578 21.1267,488.911 23,489.5C 23.3333,490.167 23.6667,490.833 24,491.5C 26.5457,488.963 28.2124,485.963 29,482.5C 29.7175,483.451 30.5509,483.617 31.5,483C 29.0953,481.385 29.0953,480.719 31.5,481C 32.3333,482.5 33.5,483.667 35,484.5C 36.7583,483.531 37.2583,482.364 36.5,481C 37.5,480.667 38.5,480.333 39.5,480C 37.7091,479.585 36.3757,478.585 35.5,477C 36.8333,476.333 38.1667,476.333 39.5,477C 38.8333,477.333 38.1667,477.667 37.5,478C 41.1639,479.667 43.3306,482.5 44,486.5C 44.1992,484.598 45.0325,483.098 46.5,482C 45.8333,481.333 45.1667,480.667 44.5,480C 46,478.167 47.5,476.333 49,474.5C 49.3333,474.833 49.6667,475.167 50,475.5C 51.46,473.578 53.1267,472.911 55,473.5C 55.3333,474.167 55.6667,474.833 56,475.5C 58.5457,472.963 60.2124,469.963 61,466.5C 61.7175,467.451 62.5509,467.617 63.5,467C 61.0953,465.385 61.0953,464.719 63.5,465C 64.3333,466.5 65.5,467.667 67,468.5C 68.7583,467.531 69.2583,466.364 68.5,465C 69.5,464.667 70.5,464.333 71.5,464C 69.7091,463.585 68.3757,462.585 67.5,461C 68.8333,460.333 70.1667,460.333 71.5,461C 70.8333,461.333 70.1667,461.667 69.5,462C 73.1639,463.667 75.3306,466.5 76,470.5C 76.1992,468.598 77.0325,467.098 78.5,466C 77.8333,465.333 77.1667,464.667 76.5,464C 78,462.167 79.5,460.333 81,458.5C 81.3333,458.833 81.6667,459.167 82,459.5C 82.6891,458.643 83.5224,457.977 84.5,457.5C 85.4255,458.641 86.2588,458.641 87,457.5C 87.3333,458.167 87.6667,458.833 88,459.5C 90.5457,456.963 92.2124,453.963 93,450.5C 96.1103,451.673 96.277,451.173 93.5,449C 95.8113,450.298 98.1446,451.631 100.5,453C 100.5,451.667 100.5,450.333 100.5,449C 101.5,448.667 102.5,448.333 103.5,448C 101.709,447.585 100.376,446.585 99.5,445C 100.833,444.333 102.167,444.333 103.5,445C 102.833,445.333 102.167,445.667 101.5,446C 105.164,447.667 107.331,450.5 108,454.5C 108.199,452.598 109.033,451.098 110.5,450C 109.833,449.333 109.167,448.667 108.5,448C 110.345,445.098 112.512,443.265 115,442.5C 114.021,444.279 114.354,445.945 116,447.5C 116.17,437.991 116.67,428.658 117.5,419.5 Z"/></g>
<g><path style="opacity:1" fill="#07d19a" d="M 715.5,599.5 C 705.366,605.737 695.033,611.737 684.5,617.5C 681.004,615.916 681.004,614.749 684.5,614C 681.833,613.333 681.833,612.667 684.5,612C 683.833,611.333 683.167,610.667 682.5,610C 683.585,607.828 684.919,605.828 686.5,604C 685.833,603 685.167,602 684.5,601C 687.464,600.16 687.797,599.16 685.5,598C 686.138,596.293 686.138,594.46 685.5,592.5C 687.765,590.358 690.432,588.691 693.5,587.5C 694.497,580.532 694.83,573.532 694.5,566.5C 695.249,565.469 695.915,564.302 696.5,563C 696.167,562.667 695.833,562.333 695.5,562C 698.167,561.333 698.167,560.667 695.5,560C 696.061,558.324 697.061,556.991 698.5,556C 697.833,555.333 697.167,554.667 696.5,554C 699.538,551.844 699.872,549.511 697.5,547C 698.167,546.667 698.833,546.333 699.5,546C 698.521,544.221 698.854,542.555 700.5,541C 699.833,540.667 699.167,540.333 698.5,540C 699.5,539 700.5,538 701.5,537C 698.833,536.333 698.833,535.667 701.5,535C 702.244,532.517 702.244,529.851 701.5,527C 701.964,522.938 703.298,518.938 705.5,515C 703.487,513.209 703.487,511.875 705.5,511C 705.5,509.333 705.5,507.667 705.5,506C 706.167,505 706.833,504 707.5,503C 706.41,499.546 706.41,496.046 707.5,492.5C 708.04,491.252 708.707,490.085 709.5,489C 708.366,487.984 708.699,487.317 710.5,487C 708.244,485.501 708.244,483.834 710.5,482C 709.102,480.351 709.436,479.018 711.5,478C 710.273,476.413 710.606,475.079 712.5,474C 713.253,470.378 713.253,466.545 712.5,462.5C 714.087,460.915 714.92,459.248 715,457.5C 715.5,504.832 715.667,552.165 715.5,599.5 Z"/></g>
<g><path style="opacity:1" fill="#298ccd" d="M 405.5,450.5 C 412.725,452.73 420.059,453.063 427.5,451.5C 427.5,459.833 427.5,468.167 427.5,476.5C 426.596,475.791 426.263,474.791 426.5,473.5C 424.403,473.003 422.57,472.67 421,472.5C 420,475.167 419,475.167 418,472.5C 417.667,473.167 417.333,473.833 417,474.5C 415.887,473.289 414.72,473.289 413.5,474.5C 412.833,473.833 412.167,473.167 411.5,472.5C 409.958,473.747 408.458,473.747 407,472.5C 406.501,477.823 406.334,483.156 406.5,488.5C 406.806,491.385 406.473,494.052 405.5,496.5C 405.5,481.167 405.5,465.833 405.5,450.5 Z"/></g>
<g><path style="opacity:1" fill="#2297c4" d="M 427.5,476.5 C 427.5,481.167 427.5,485.833 427.5,490.5C 426.526,489.365 425.359,488.365 424,487.5C 418.379,487.75 412.546,488.084 406.5,488.5C 406.334,483.156 406.501,477.823 407,472.5C 408.458,473.747 409.958,473.747 411.5,472.5C 412.167,473.167 412.833,473.833 413.5,474.5C 414.72,473.289 415.887,473.289 417,474.5C 417.333,473.833 417.667,473.167 418,472.5C 419,475.167 420,475.167 421,472.5C 422.57,472.67 424.403,473.003 426.5,473.5C 426.263,474.791 426.596,475.791 427.5,476.5 Z"/></g>
<g><path style="opacity:1" fill="#1da3bc" d="M 427.5,490.5 C 427.5,496.833 427.5,503.167 427.5,509.5C 426.596,508.791 426.263,507.791 426.5,506.5C 419.759,507.092 413.092,507.092 406.5,506.5C 406.5,512.833 406.5,519.167 406.5,525.5C 406.822,531.358 406.489,537.025 405.5,542.5C 405.5,527.167 405.5,511.833 405.5,496.5C 406.473,494.052 406.806,491.385 406.5,488.5C 412.546,488.084 418.379,487.75 424,487.5C 425.359,488.365 426.526,489.365 427.5,490.5 Z"/></g>
<g><path style="opacity:0.997" fill="#ececec" d="M 830.5,506.5 C 804.357,622.686 741.357,712.852 641.5,777C 582.178,813.385 517.845,834.219 448.5,839.5C 429.167,839.5 409.833,839.5 390.5,839.5C 330.929,835.275 274.929,818.942 222.5,790.5C 223.122,789.373 223.955,788.373 225,787.5C 226.46,789.422 228.127,790.089 230,789.5C 231,788.167 232,786.833 233,785.5C 233.414,785.957 233.914,786.291 234.5,786.5C 236.58,784.187 238.246,782.187 239.5,780.5C 240.192,781.025 240.692,781.692 241,782.5C 242.945,781.137 245.112,780.303 247.5,780C 248.618,778.926 249.618,777.76 250.5,776.5C 251.696,776.846 251.696,777.346 250.5,778C 251.744,778.456 252.577,777.956 253,776.5C 253.93,778.966 254.763,778.799 255.5,776C 254.29,774.132 254.79,772.632 257,771.5C 259,773.5 261,775.5 263,777.5C 261.89,774.389 262.556,771.723 265,769.5C 265.414,769.957 265.914,770.291 266.5,770.5C 268.58,768.187 270.246,766.187 271.5,764.5C 272.192,765.025 272.692,765.692 273,766.5C 274.945,765.137 277.112,764.303 279.5,764C 280.618,762.926 281.618,761.76 282.5,760.5C 283.696,760.846 283.696,761.346 282.5,762C 283.744,762.456 284.577,761.956 285,760.5C 285.93,762.966 286.763,762.799 287.5,760C 286.29,758.132 286.79,756.632 289,755.5C 291,757.5 293,759.5 295,761.5C 295.72,759.888 295.554,758.388 294.5,757C 295.126,756.25 295.626,755.416 296,754.5C 296.741,753.359 297.575,753.359 298.5,754.5C 299.693,752.473 301.36,750.973 303.5,750C 303.167,749.667 302.833,749.333 302.5,749C 303.744,748.544 304.577,749.044 305,750.5C 306.395,749.185 307.395,749.519 308,751.5C 309.667,750.833 311.333,750.167 313,749.5C 313.333,749.833 313.667,750.167 314,750.5C 314.667,749.167 315.333,747.833 316,746.5C 316.333,747.167 316.667,747.833 317,748.5C 317.741,747.359 318.575,747.359 319.5,748.5C 320.604,747.369 320.271,746.535 318.5,746C 319.833,744.667 319.833,743.333 318.5,742C 319.333,741.167 320.167,740.333 321,739.5C 323,741.5 325,743.5 327,745.5C 327.72,743.888 327.554,742.388 326.5,741C 327.126,740.25 327.626,739.416 328,738.5C 328.741,737.359 329.575,737.359 330.5,738.5C 332.177,736.324 334.011,734.324 336,732.5C 336.333,733.167 336.667,733.833 337,734.5C 337.893,733.289 338.726,733.289 339.5,734.5C 336.871,737.441 337.538,738.107 341.5,736.5C 342.251,737.376 342.751,738.376 343,739.5C 344.658,737.004 346.325,734.004 348,730.5C 348.333,731.167 348.667,731.833 349,732.5C 349.741,731.359 350.575,731.359 351.5,732.5C 352.192,731.975 352.692,731.308 353,730.5C 354.147,731.458 355.147,731.125 356,729.5C 357,730.833 358,730.833 359,729.5C 357.89,726.389 358.556,723.723 361,721.5C 362.395,722.815 363.395,722.481 364,720.5C 364.667,722.5 366,723.833 368,724.5C 369.406,723.332 370.572,723.665 371.5,725.5C 372.425,724.359 373.259,724.359 374,725.5C 375.586,722.081 377.586,718.414 380,714.5C 380.333,715.167 380.667,715.833 381,716.5C 381.741,715.359 382.575,715.359 383.5,716.5C 384.192,715.975 384.692,715.308 385,714.5C 386.147,715.458 387.147,715.125 388,713.5C 389,714.833 390,714.833 391,713.5C 389.89,710.389 390.556,707.723 393,705.5C 394.395,706.815 395.395,706.481 396,704.5C 396.667,706.5 398,707.833 400,708.5C 401.406,707.332 402.572,707.665 403.5,709.5C 404.425,708.359 405.259,708.359 406,709.5C 407.586,706.081 409.586,702.414 412,698.5C 412.333,699.167 412.667,699.833 413,700.5C 413.741,699.359 414.575,699.359 415.5,700.5C 416.192,699.975 416.692,699.308 417,698.5C 418.147,699.458 419.147,699.125 420,697.5C 420.718,698.451 421.551,698.617 422.5,698C 423.833,696.333 423.833,694.667 422.5,693C 423.211,691.745 424.044,690.579 425,689.5C 426.395,690.815 427.395,690.481 428,688.5C 428.667,690.5 430,691.833 432,692.5C 433.406,691.332 434.572,691.665 435.5,693.5C 436.425,692.359 437.259,692.359 438,693.5C 439.586,690.081 441.586,686.414 444,682.5C 444.333,683.167 444.667,683.833 445,684.5C 445.741,683.359 446.575,683.359 447.5,684.5C 448.192,683.975 448.692,683.308 449,682.5C 450.147,683.458 451.147,683.125 452,681.5C 453,682.833 454,682.833 455,681.5C 453.89,678.389 454.556,675.723 457,673.5C 458.395,674.815 459.395,674.481 460,672.5C 460.667,674.5 462,675.833 464,676.5C 465.406,675.332 466.572,675.665 467.5,677.5C 468.425,676.359 469.259,676.359 470,677.5C 471.586,674.081 473.586,670.414 476,666.5C 476.333,667.167 476.667,667.833 477,668.5C 477.741,667.359 478.575,667.359 479.5,668.5C 480.192,667.975 480.692,667.308 481,666.5C 482.147,667.458 483.147,667.125 484,665.5C 485,666.833 486,666.833 487,665.5C 487.333,666.167 487.667,666.833 488,667.5C 488.833,666.5 489.667,665.5 490.5,664.5C 490.833,665.167 491.167,665.833 491.5,666.5C 492.541,664.009 493.374,664.009 494,666.5C 495.31,664.707 495.81,662.874 495.5,661C 493.697,660.363 492.364,659.197 491.5,657.5C 493.503,655.867 494.836,653.867 495.5,651.5C 500.368,654.434 505.368,657.1 510.5,659.5C 515.994,663.082 521.661,666.415 527.5,669.5C 532.967,673.071 538.633,676.404 544.5,679.5C 549.853,682.933 555.353,686.267 561,689.5C 561.399,689.272 561.565,688.938 561.5,688.5C 569.171,684.667 576.504,680.334 583.5,675.5C 590.996,672.255 597.996,668.255 604.5,663.5C 611.332,660.588 617.666,656.921 623.5,652.5C 631.428,648.559 639.095,644.226 646.5,639.5C 653.032,636.071 659.366,632.404 665.5,628.5C 672.032,625.071 678.366,621.404 684.5,617.5C 695.033,611.737 705.366,605.737 715.5,599.5C 716.496,585.343 716.829,571.01 716.5,556.5C 717.806,556.121 719.139,555.788 720.5,555.5C 719.975,554.808 719.308,554.308 718.5,554C 719.833,552.667 719.833,551.333 718.5,550C 719.333,549.167 720.167,548.333 721,547.5C 723,549.5 725,551.5 727,553.5C 725.89,550.389 726.556,547.723 729,545.5C 730.395,546.815 731.395,546.481 732,544.5C 732.667,546.5 734,547.833 736,548.5C 737.406,547.332 738.572,547.665 739.5,549.5C 740.425,548.359 741.259,548.359 742,549.5C 743.586,546.081 745.586,542.414 748,538.5C 748.333,539.167 748.667,539.833 749,540.5C 749.741,539.359 750.575,539.359 751.5,540.5C 752.192,539.975 752.692,539.308 753,538.5C 754.147,539.458 755.147,539.125 756,537.5C 757,538.833 758,538.833 759,537.5C 757.89,534.389 758.556,531.723 761,529.5C 762.395,530.815 763.395,530.481 764,528.5C 764.667,530.5 766,531.833 768,532.5C 769.406,531.332 770.572,531.665 771.5,533.5C 772.425,532.359 773.259,532.359 774,533.5C 775.586,530.081 777.586,526.414 780,522.5C 780.333,523.167 780.667,523.833 781,524.5C 781.741,523.359 782.575,523.359 783.5,524.5C 784.192,523.975 784.692,523.308 785,522.5C 786.147,523.458 787.147,523.125 788,521.5C 789,522.833 790,522.833 791,521.5C 789.89,518.389 790.556,515.723 793,513.5C 794.395,514.815 795.395,514.481 796,512.5C 796.667,514.5 798,515.833 800,516.5C 801.406,515.332 802.572,515.665 803.5,517.5C 804.425,516.359 805.259,516.359 806,517.5C 807.586,514.081 809.586,510.414 812,506.5C 812.333,507.167 812.667,507.833 813,508.5C 813.741,507.359 814.575,507.359 815.5,508.5C 816.192,507.975 816.692,507.308 817,506.5C 818.147,507.458 819.147,507.125 820,505.5C 821,506.833 822,506.833 823,505.5C 821.89,502.389 822.556,499.723 825,497.5C 826.395,498.815 827.395,498.481 828,496.5C 828.5,498.333 829.667,499.5 831.5,500C 830.572,500.388 829.905,501.055 829.5,502C 829.93,503.598 830.264,505.098 830.5,506.5 Z"/></g>
<g><path style="opacity:1" fill="#16b0b2" d="M 427.5,509.5 C 427.5,516.5 427.5,523.5 427.5,530.5C 426.549,529.081 426.216,527.415 426.5,525.5C 419.82,525.718 413.153,525.718 406.5,525.5C 406.5,519.167 406.5,512.833 406.5,506.5C 413.092,507.092 419.759,507.092 426.5,506.5C 426.263,507.791 426.596,508.791 427.5,509.5 Z"/></g>
<g><path style="opacity:1" fill="#11bcaa" d="M 406.5,525.5 C 413.153,525.718 419.82,525.718 426.5,525.5C 426.216,527.415 426.549,529.081 427.5,530.5C 427.5,536.5 427.5,542.5 427.5,548.5C 426.698,547.048 426.198,545.382 426,543.5C 423.184,542.87 420.518,543.536 418,545.5C 415.667,544.167 413.333,544.167 411,545.5C 410.667,544.833 410.333,544.167 410,543.5C 408.989,544.337 407.822,544.67 406.5,544.5C 406.5,550.833 406.5,557.167 406.5,563.5C 406.823,567.226 406.489,570.893 405.5,574.5C 404.893,574.376 404.56,574.043 404.5,573.5C 405.494,563.347 405.828,553.014 405.5,542.5C 406.489,537.025 406.822,531.358 406.5,525.5 Z"/></g>
<g><path style="opacity:1" fill="#09c9a0" d="M 427.5,548.5 C 427.5,555.5 427.5,562.5 427.5,569.5C 426.686,567.369 426.186,565.036 426,562.5C 419.543,562.6 413.043,562.934 406.5,563.5C 406.5,557.167 406.5,550.833 406.5,544.5C 407.822,544.67 408.989,544.337 410,543.5C 410.333,544.167 410.667,544.833 411,545.5C 413.333,544.167 415.667,544.167 418,545.5C 420.518,543.536 423.184,542.87 426,543.5C 426.198,545.382 426.698,547.048 427.5,548.5 Z"/></g>
<g><path style="opacity:1" fill="#11caa0" d="M 685.5,592.5 C 686.138,594.46 686.138,596.293 685.5,598C 687.797,599.16 687.464,600.16 684.5,601C 685.167,602 685.833,603 686.5,604C 684.919,605.828 683.585,607.828 682.5,610C 683.167,610.667 683.833,611.333 684.5,612C 681.833,612.667 681.833,613.333 684.5,614C 681.004,614.749 681.004,615.916 684.5,617.5C 678.366,621.404 672.032,625.071 665.5,628.5C 664.448,628.649 663.448,628.483 662.5,628C 663.438,626.937 664.438,625.77 665.5,624.5C 664.96,623.252 664.293,622.085 663.5,621C 666.544,620.641 666.878,619.974 664.5,619C 665.061,617.324 666.061,615.991 667.5,615C 666.692,614.692 666.025,614.192 665.5,613.5C 666.641,612.575 666.641,611.741 665.5,611C 667.569,610.676 667.902,609.842 666.5,608.5C 668.065,606.461 668.731,604.461 668.5,602.5C 673.665,598.414 679.332,595.08 685.5,592.5 Z"/></g>
<g><path style="opacity:1" fill="#3180d6" d="M 394.5,593.5 C 401.996,596.745 408.996,600.745 415.5,605.5C 409.201,609.988 402.534,613.988 395.5,617.5C 394.394,616.851 393.394,616.517 392.5,616.5C 393.025,615.808 393.692,615.308 394.5,615C 392.433,613.343 391.1,611.676 390.5,610C 393.167,609.333 393.167,608.667 390.5,608C 390.112,606.475 390.112,604.808 390.5,603C 388.193,602.646 387.859,601.646 389.5,600C 388.944,598.989 388.278,598.156 387.5,597.5C 389.833,596.167 392.167,594.833 394.5,593.5 Z"/></g>
<g><path style="opacity:1" fill="#357adb" d="M 439.5,593.5 C 442.549,595.863 445.882,597.863 449.5,599.5C 448.847,600.807 448.18,602.14 447.5,603.5C 449.991,604.541 449.991,605.374 447.5,606C 447.833,607 448.167,608 448.5,609C 447.313,610.019 446.313,611.186 445.5,612.5C 448.344,613.197 448.011,614.364 444.5,616C 447.167,616.667 447.167,617.333 444.5,618C 446.742,619.007 446.408,619.841 443.5,620.5C 434.499,616.002 425.832,611.002 417.5,605.5C 424.54,600.98 431.874,596.98 439.5,593.5 Z"/></g>
<g><path style="opacity:1" fill="#3280d7" d="M 449.5,599.5 C 454.666,602.248 459.666,605.248 464.5,608.5C 462.836,610.679 463.17,612.512 465.5,614C 464.9,615.676 463.567,617.343 461.5,619C 464.712,620.709 464.878,622.209 462,623.5C 461.349,625.235 461.515,626.902 462.5,628.5C 462.145,629.522 461.478,630.189 460.5,630.5C 454.332,627.92 448.665,624.586 443.5,620.5C 446.408,619.841 446.742,619.007 444.5,618C 447.167,617.333 447.167,616.667 444.5,616C 448.011,614.364 448.344,613.197 445.5,612.5C 446.313,611.186 447.313,610.019 448.5,609C 448.167,608 447.833,607 447.5,606C 449.991,605.374 449.991,604.541 447.5,603.5C 448.18,602.14 448.847,600.807 449.5,599.5 Z"/></g>
<g><path style="opacity:1" fill="#2e88d1" d="M 387.5,597.5 C 388.278,598.156 388.944,598.989 389.5,600C 387.859,601.646 388.193,602.646 390.5,603C 390.112,604.808 390.112,606.475 390.5,608C 393.167,608.667 393.167,609.333 390.5,610C 391.1,611.676 392.433,613.343 394.5,615C 393.692,615.308 393.025,615.808 392.5,616.5C 393.394,616.517 394.394,616.851 395.5,617.5C 388.671,621.749 381.671,625.749 374.5,629.5C 373.272,627.99 373.272,626.49 374.5,625C 373.636,623.863 372.636,622.53 371.5,621C 372.167,620.667 372.833,620.333 373.5,620C 373.258,617.697 371.925,615.697 369.5,614C 369.895,611.777 370.228,609.611 370.5,607.5C 375.967,603.929 381.633,600.596 387.5,597.5 Z"/></g>
<g><path style="opacity:1" fill="#14c4a4" d="M 668.5,602.5 C 668.731,604.461 668.065,606.461 666.5,608.5C 667.902,609.842 667.569,610.676 665.5,611C 666.641,611.741 666.641,612.575 665.5,613.5C 666.025,614.192 666.692,614.692 667.5,615C 666.061,615.991 665.061,617.324 664.5,619C 666.878,619.974 666.544,620.641 663.5,621C 664.293,622.085 664.96,623.252 665.5,624.5C 664.438,625.77 663.438,626.937 662.5,628C 663.448,628.483 664.448,628.649 665.5,628.5C 659.366,632.404 653.032,636.071 646.5,639.5C 642.885,637.369 642.552,634.702 645.5,631.5C 644.998,630.284 644.665,629.117 644.5,628C 645.167,627.333 645.833,626.667 646.5,626C 646.878,622.244 646.878,618.411 646.5,614.5C 653.597,610.07 660.931,606.07 668.5,602.5 Z"/></g>
<g><path style="opacity:1" fill="#2b8ecd" d="M 370.5,607.5 C 370.228,609.611 369.895,611.777 369.5,614C 371.925,615.697 373.258,617.697 373.5,620C 372.833,620.333 372.167,620.667 371.5,621C 372.636,622.53 373.636,623.863 374.5,625C 373.272,626.49 373.272,627.99 374.5,629.5C 371.992,631.924 368.992,633.59 365.5,634.5C 363.193,633.812 361.86,632.646 361.5,631C 362.167,630.667 362.833,630.333 363.5,630C 363.212,627.762 361.878,625.929 359.5,624.5C 360.025,623.808 360.692,623.308 361.5,623C 359.606,621.921 359.273,620.587 360.5,619C 359.833,618.667 359.167,618.333 358.5,618C 359.171,617.014 359.171,615.847 358.5,614.5C 362.465,612.182 366.465,609.848 370.5,607.5 Z"/></g>
<g><path style="opacity:1" fill="#17bfa8" d="M 646.5,614.5 C 646.878,618.411 646.878,622.244 646.5,626C 645.833,626.667 645.167,627.333 644.5,628C 644.665,629.117 644.998,630.284 645.5,631.5C 642.552,634.702 642.885,637.369 646.5,639.5C 639.095,644.226 631.428,648.559 623.5,652.5C 623.877,650.742 624.544,649.075 625.5,647.5C 624.098,646.158 624.431,645.324 626.5,645C 624.487,644.125 624.487,642.791 626.5,641C 625.075,639.286 625.408,637.953 627.5,637C 627.649,633.184 627.649,629.351 627.5,625.5C 633.997,622.086 640.33,618.419 646.5,614.5 Z"/></g>
<g><path style="opacity:1" fill="#2e88d1" d="M 464.5,608.5 C 472.329,612.58 479.996,616.913 487.5,621.5C 486.412,623.583 485.412,625.749 484.5,628C 485.167,628.333 485.833,628.667 486.5,629C 483.292,631.447 483.292,633.113 486.5,634C 483.057,634.221 482.724,635.221 485.5,637C 483.5,637.667 482.167,639 481.5,641C 484.097,641.779 484.097,642.279 481.5,642.5C 474.004,639.255 467.004,635.255 460.5,630.5C 461.478,630.189 462.145,629.522 462.5,628.5C 461.515,626.902 461.349,625.235 462,623.5C 464.878,622.209 464.712,620.709 461.5,619C 463.567,617.343 464.9,615.676 465.5,614C 463.17,612.512 462.836,610.679 464.5,608.5 Z"/></g>
<g><path style="opacity:1" fill="#2993c9" d="M 358.5,614.5 C 359.171,615.847 359.171,617.014 358.5,618C 359.167,618.333 359.833,618.667 360.5,619C 359.273,620.587 359.606,621.921 361.5,623C 360.692,623.308 360.025,623.808 359.5,624.5C 361.878,625.929 363.212,627.762 363.5,630C 362.833,630.333 362.167,630.667 361.5,631C 361.86,632.646 363.193,633.812 365.5,634.5C 361.005,638.251 356.005,641.251 350.5,643.5C 348.285,640.873 346.952,638.04 346.5,635C 347.167,634.667 347.833,634.333 348.5,634C 347.5,633 346.5,632 345.5,631C 347.991,630.374 347.991,629.541 345.5,628.5C 345.709,627.914 346.043,627.414 346.5,627C 344.574,626.578 343.574,625.411 343.5,623.5C 348.216,620.137 353.216,617.137 358.5,614.5 Z"/></g>
<g><path style="opacity:1" fill="#11cb9f" d="M 190.5,616.5 C 197.833,620.833 205.167,625.167 212.5,629.5C 212.297,631.39 212.963,632.89 214.5,634C 213.542,635.147 213.875,636.147 215.5,637C 214.833,637.333 214.167,637.667 213.5,638C 215.422,639.46 216.089,641.127 215.5,643C 216.357,643.689 217.023,644.522 217.5,645.5C 217.044,649.117 218.044,652.617 220.5,656C 219.956,656.717 219.289,657.217 218.5,657.5C 210.572,653.559 202.905,649.226 195.5,644.5C 196.239,644.631 196.906,644.464 197.5,644C 196.833,642.667 196.167,641.333 195.5,640C 196.634,638.984 196.301,638.317 194.5,638C 195.246,635.907 195.579,633.907 195.5,632C 194.5,631 193.5,630 192.5,629C 193.022,628.439 193.355,627.772 193.5,627C 193.079,623.583 192.079,620.083 190.5,616.5 Z"/></g>
<g><path style="opacity:1" fill="#2b8ecd" d="M 487.5,621.5 C 491.5,623.833 495.5,626.167 499.5,628.5C 499.64,630.124 498.973,631.29 497.5,632C 498.024,635.285 498.024,638.785 497.5,642.5C 495.732,645.1 494.398,647.434 493.5,649.5C 489.164,647.668 485.164,645.335 481.5,642.5C 484.097,642.279 484.097,641.779 481.5,641C 482.167,639 483.5,637.667 485.5,637C 482.724,635.221 483.057,634.221 486.5,634C 483.292,633.113 483.292,631.447 486.5,629C 485.833,628.667 485.167,628.333 484.5,628C 485.412,625.749 486.412,623.583 487.5,621.5 Z"/></g>
<g><path style="opacity:1" fill="#2699c4" d="M 343.5,623.5 C 343.574,625.411 344.574,626.578 346.5,627C 346.043,627.414 345.709,627.914 345.5,628.5C 347.991,629.541 347.991,630.374 345.5,631C 346.5,632 347.5,633 348.5,634C 347.833,634.333 347.167,634.667 346.5,635C 346.952,638.04 348.285,640.873 350.5,643.5C 345.498,647.003 340.165,650.003 334.5,652.5C 334.123,650.742 333.456,649.075 332.5,647.5C 333.229,645.405 332.563,643.572 330.5,642C 330.833,640.333 331.167,638.667 331.5,637C 328.833,636.333 328.833,635.667 331.5,635C 330.027,634.29 329.36,633.124 329.5,631.5C 333.833,628.331 338.5,625.664 343.5,623.5 Z"/></g>
<g><path style="opacity:1" fill="#18b9ad" d="M 627.5,625.5 C 627.649,629.351 627.649,633.184 627.5,637C 625.408,637.953 625.075,639.286 626.5,641C 624.487,642.791 624.487,644.125 626.5,645C 624.431,645.324 624.098,646.158 625.5,647.5C 624.544,649.075 623.877,650.742 623.5,652.5C 617.666,656.921 611.332,660.588 604.5,663.5C 605.601,660.823 605.601,657.99 604.5,655C 606.807,654.646 607.141,653.646 605.5,652C 605.903,650.527 606.57,649.194 607.5,648C 607.167,647 606.833,646 606.5,645C 607.167,644.667 607.833,644.333 608.5,644C 607.577,641.959 607.244,639.792 607.5,637.5C 614.131,633.515 620.798,629.515 627.5,625.5 Z"/></g>
<g><path style="opacity:1" fill="#12c4a4" d="M 212.5,629.5 C 218.87,632.679 224.87,636.346 230.5,640.5C 231.937,642.527 233.27,644.694 234.5,647C 234.167,647.333 233.833,647.667 233.5,648C 234.344,650.454 235.344,652.954 236.5,655.5C 236.291,656.086 235.957,656.586 235.5,657C 238.294,659.841 238.794,663.007 237,666.5C 236.014,665.829 234.847,665.829 233.5,666.5C 228.216,663.863 223.216,660.863 218.5,657.5C 219.289,657.217 219.956,656.717 220.5,656C 218.044,652.617 217.044,649.117 217.5,645.5C 217.023,644.522 216.357,643.689 215.5,643C 216.089,641.127 215.422,639.46 213.5,638C 214.167,637.667 214.833,637.333 215.5,637C 213.875,636.147 213.542,635.147 214.5,634C 212.963,632.89 212.297,631.39 212.5,629.5 Z"/></g>
<g><path style="opacity:1" fill="#22a0bf" d="M 329.5,631.5 C 329.36,633.124 330.027,634.29 331.5,635C 328.833,635.667 328.833,636.333 331.5,637C 331.167,638.667 330.833,640.333 330.5,642C 332.563,643.572 333.229,645.405 332.5,647.5C 333.456,649.075 334.123,650.742 334.5,652.5C 330.705,655.905 326.372,658.571 321.5,660.5C 320.394,659.851 319.394,659.517 318.5,659.5C 318.377,657.378 318.377,655.211 318.5,653C 315.644,650.75 314.978,648.417 316.5,646C 315.636,644.863 314.636,643.53 313.5,642C 314.381,641.292 315.047,640.458 315.5,639.5C 319.833,636.331 324.5,633.664 329.5,631.5 Z"/></g>
<g><path style="opacity:1" fill="#2893c8" d="M 499.5,628.5 C 505.122,631.472 510.455,634.805 515.5,638.5C 515.607,640.903 514.607,642.736 512.5,644C 513.308,644.308 513.975,644.808 514.5,645.5C 513.289,646.72 513.289,647.887 514.5,649C 511.833,649.667 511.833,650.333 514.5,651C 513.5,652 512.5,653 511.5,654C 511.833,655.667 512.167,657.333 512.5,659C 511.906,659.464 511.239,659.631 510.5,659.5C 505.368,657.1 500.368,654.434 495.5,651.5C 494.5,651.167 493.833,650.5 493.5,649.5C 494.398,647.434 495.732,645.1 497.5,642.5C 498.024,638.785 498.024,635.285 497.5,632C 498.973,631.29 499.64,630.124 499.5,628.5 Z"/></g>
<g><path style="opacity:1" fill="#2699c4" d="M 515.5,638.5 C 521.165,640.997 526.498,643.997 531.5,647.5C 533.17,650.306 532.837,652.806 530.5,655C 532.878,655.974 532.544,656.641 529.5,657C 530.167,657.333 530.833,657.667 531.5,658C 528.766,660.646 528.433,663.313 530.5,666C 529.837,667.518 528.837,668.685 527.5,669.5C 521.661,666.415 515.994,663.082 510.5,659.5C 511.239,659.631 511.906,659.464 512.5,659C 512.167,657.333 511.833,655.667 511.5,654C 512.5,653 513.5,652 514.5,651C 511.833,650.333 511.833,649.667 514.5,649C 513.289,647.887 513.289,646.72 514.5,645.5C 513.975,644.808 513.308,644.308 512.5,644C 514.607,642.736 515.607,640.903 515.5,638.5 Z"/></g>
<g><path style="opacity:1" fill="#1bb2b2" d="M 607.5,637.5 C 607.244,639.792 607.577,641.959 608.5,644C 607.833,644.333 607.167,644.667 606.5,645C 606.833,646 607.167,647 607.5,648C 606.57,649.194 605.903,650.527 605.5,652C 607.141,653.646 606.807,654.646 604.5,655C 605.601,657.99 605.601,660.823 604.5,663.5C 597.996,668.255 590.996,672.255 583.5,675.5C 581.525,673.512 581.525,671.678 583.5,670C 583.043,669.586 582.709,669.086 582.5,668.5C 582.975,666.103 583.975,663.603 585.5,661C 584.167,660.333 584.167,659.667 585.5,659C 584.833,658.667 584.167,658.333 583.5,658C 586.969,655.328 587.302,652.828 584.5,650.5C 592.032,645.902 599.698,641.568 607.5,637.5 Z"/></g>
<g><path style="opacity:1" fill="#17bfa8" d="M 230.5,640.5 C 237.461,643.647 244.127,647.313 250.5,651.5C 251.919,654.537 252.919,657.537 253.5,660.5C 252.098,661.842 252.431,662.676 254.5,663C 254.499,664.399 254.165,665.899 253.5,667.5C 254.642,669.378 255.642,671.212 256.5,673C 256.043,673.414 255.709,673.914 255.5,674.5C 256.167,674.833 256.833,675.167 257.5,675.5C 256.802,677.037 256.469,678.37 256.5,679.5C 248.572,675.559 240.905,671.226 233.5,666.5C 234.847,665.829 236.014,665.829 237,666.5C 238.794,663.007 238.294,659.841 235.5,657C 235.957,656.586 236.291,656.086 236.5,655.5C 235.344,652.954 234.344,650.454 233.5,648C 233.833,647.667 234.167,647.333 234.5,647C 233.27,644.694 231.937,642.527 230.5,640.5 Z"/></g>
<g><path style="opacity:1" fill="#20a6bb" d="M 315.5,639.5 C 315.047,640.458 314.381,641.292 313.5,642C 314.636,643.53 315.636,644.863 316.5,646C 314.978,648.417 315.644,650.75 318.5,653C 318.377,655.211 318.377,657.378 318.5,659.5C 319.394,659.517 320.394,659.851 321.5,660.5C 317.096,663.559 312.429,666.225 307.5,668.5C 306.394,667.851 305.394,667.517 304.5,667.5C 304.709,666.914 305.043,666.414 305.5,666C 304.405,663.805 303.405,661.638 302.5,659.5C 302.377,657.378 302.377,655.211 302.5,653C 301.117,651.729 300.117,650.229 299.5,648.5C 304.537,644.981 309.87,641.981 315.5,639.5 Z"/></g>
<g><path style="opacity:1" fill="#23a0bf" d="M 531.5,647.5 C 538.097,650.775 544.43,654.442 550.5,658.5C 549.883,660.229 548.883,661.729 547.5,663C 549.776,664.874 549.443,666.541 546.5,668C 548.434,669.729 548.434,671.729 546.5,674C 547.446,676.298 546.779,678.132 544.5,679.5C 538.633,676.404 532.967,673.071 527.5,669.5C 528.837,668.685 529.837,667.518 530.5,666C 528.433,663.313 528.766,660.646 531.5,658C 530.833,657.667 530.167,657.333 529.5,657C 532.544,656.641 532.878,655.974 530.5,655C 532.837,652.806 533.17,650.306 531.5,647.5 Z"/></g>
<g><path style="opacity:1" fill="#19b9ad" d="M 250.5,651.5 C 257.764,656.298 265.43,660.298 273.5,663.5C 272.602,664.158 271.602,664.824 270.5,665.5C 271.833,666.5 271.833,667.5 270.5,668.5C 271.074,670.059 271.74,671.559 272.5,673C 272.167,673.333 271.833,673.667 271.5,674C 273.004,675.337 274.004,677.004 274.5,679C 274.167,679.333 273.833,679.667 273.5,680C 274.234,682.561 275.567,684.727 277.5,686.5C 275.399,688.109 273.065,688.609 270.5,688C 265.603,685.392 260.937,682.559 256.5,679.5C 256.469,678.37 256.802,677.037 257.5,675.5C 256.833,675.167 256.167,674.833 255.5,674.5C 255.709,673.914 256.043,673.414 256.5,673C 255.642,671.212 254.642,669.378 253.5,667.5C 254.165,665.899 254.499,664.399 254.5,663C 252.431,662.676 252.098,661.842 253.5,660.5C 252.919,657.537 251.919,654.537 250.5,651.5 Z"/></g>
<g><path style="opacity:1" fill="#1eacb6" d="M 299.5,648.5 C 300.117,650.229 301.117,651.729 302.5,653C 302.377,655.211 302.377,657.378 302.5,659.5C 303.405,661.638 304.405,663.805 305.5,666C 305.043,666.414 304.709,666.914 304.5,667.5C 305.394,667.517 306.394,667.851 307.5,668.5C 302.498,672.003 297.165,675.003 291.5,677.5C 289.923,670.14 288.256,663.14 286.5,656.5C 290.63,653.597 294.963,650.93 299.5,648.5 Z"/></g>
<g><path style="opacity:1" fill="#1bb2b2" d="M 286.5,656.5 C 288.256,663.14 289.923,670.14 291.5,677.5C 286.87,680.486 282.203,683.486 277.5,686.5C 275.567,684.727 274.234,682.561 273.5,680C 273.833,679.667 274.167,679.333 274.5,679C 274.004,677.004 273.004,675.337 271.5,674C 271.833,673.667 272.167,673.333 272.5,673C 271.74,671.559 271.074,670.059 270.5,668.5C 271.833,667.5 271.833,666.5 270.5,665.5C 271.602,664.824 272.602,664.158 273.5,663.5C 277.598,660.736 281.932,658.403 286.5,656.5 Z"/></g>
<g><path style="opacity:1" fill="#1eacb7" d="M 584.5,650.5 C 587.302,652.828 586.969,655.328 583.5,658C 584.167,658.333 584.833,658.667 585.5,659C 584.167,659.667 584.167,660.333 585.5,661C 583.975,663.603 582.975,666.103 582.5,668.5C 582.709,669.086 583.043,669.586 583.5,670C 581.525,671.678 581.525,673.512 583.5,675.5C 576.504,680.334 569.171,684.667 561.5,688.5C 561.36,686.876 562.027,685.71 563.5,685C 563.745,681.088 563.745,677.088 563.5,673C 564.167,672.667 564.833,672.333 565.5,672C 565.167,671 564.833,670 564.5,669C 565.167,668.667 565.833,668.333 566.5,668C 566.283,665.658 566.283,663.492 566.5,661.5C 572.13,657.346 578.13,653.679 584.5,650.5 Z"/></g>
<g><path style="opacity:1" fill="#21a6bb" d="M 550.5,658.5 C 553.887,660.275 557.387,661.942 561,663.5C 562.8,662.68 564.634,662.014 566.5,661.5C 566.283,663.492 566.283,665.658 566.5,668C 565.833,668.333 565.167,668.667 564.5,669C 564.833,670 565.167,671 565.5,672C 564.833,672.333 564.167,672.667 563.5,673C 563.745,677.088 563.745,681.088 563.5,685C 562.027,685.71 561.36,686.876 561.5,688.5C 561.565,688.938 561.399,689.272 561,689.5C 555.353,686.267 549.853,682.933 544.5,679.5C 546.779,678.132 547.446,676.298 546.5,674C 548.434,671.729 548.434,669.729 546.5,668C 549.443,666.541 549.776,664.874 547.5,663C 548.883,661.729 549.883,660.229 550.5,658.5 Z"/></g>
</svg>
