<?xml version="1.0" encoding="UTF-8"?>
<!DOCTYPE svg PUBLIC "-//W3C//DTD SVG 1.1//EN" "http://www.w3.org/Graphics/SVG/1.1/DTD/svg11.dtd">
<svg xmlns="http://www.w3.org/2000/svg" version="1.1" width="244px" height="64px" style="shape-rendering:geometricPrecision; text-rendering:geometricPrecision; image-rendering:optimizeQuality; fill-rule:evenodd; clip-rule:evenodd" xmlns:xlink="http://www.w3.org/1999/xlink">
<g><path style="opacity:0.753" fill="#05d29a" d="M 32.5,-0.5 C 33.8333,-0.5 35.1667,-0.5 36.5,-0.5C 39.0094,0.921263 41.3428,2.58793 43.5,4.5C 42.1667,4.83333 40.8333,5.16667 39.5,5.5C 37.742,5.12312 36.0754,4.45645 34.5,3.5C 30.5,5.83333 26.5,8.16667 22.5,10.5C 21.5258,12.7427 21.1924,15.076 21.5,17.5C 20.0413,17.4326 18.7079,17.7659 17.5,18.5C 17.335,15.1501 17.5017,11.8168 18,8.5C 23.0059,5.63685 27.8392,2.63685 32.5,-0.5 Z"/></g>
<g><path style="opacity:0.601" fill="#13b8ad" d="M 43.5,4.5 C 46.3311,5.0787 48.6644,6.41203 50.5,8.5C 48.9731,8.42702 47.9731,9.09368 47.5,10.5C 44.4604,9.31966 41.7937,7.653 39.5,5.5C 40.8333,5.16667 42.1667,4.83333 43.5,4.5 Z"/></g>
<g><path style="opacity:0.729" fill="#393939" d="M 108.5,10.5 C 110.792,10.2436 112.959,10.5769 115,11.5C 115.333,17.8333 115.667,24.1667 116,30.5C 118.167,27.6667 120.333,24.8333 122.5,22C 125.554,21.1786 128.554,21.3452 131.5,22.5C 128.467,26.5252 125.467,30.5252 122.5,34.5C 124.716,38.8916 127.549,42.8916 131,46.5C 131.483,47.448 131.649,48.448 131.5,49.5C 128.428,49.8174 125.428,49.4841 122.5,48.5C 120.136,45.3015 117.97,41.9681 116,38.5C 115.501,42.1516 115.335,45.8183 115.5,49.5C 112.833,49.5 110.167,49.5 107.5,49.5C 107.186,36.4206 107.52,23.4206 108.5,10.5 Z"/></g>
<g><path style="opacity:0.726" fill="#393939" d="M 243.5,48.5 C 243.5,48.8333 243.5,49.1667 243.5,49.5C 240.482,49.6646 237.482,49.498 234.5,49C 231.877,45.588 229.377,42.088 227,38.5C 226.501,42.1516 226.335,45.8183 226.5,49.5C 223.833,49.5 221.167,49.5 218.5,49.5C 218.333,36.8289 218.5,24.1623 219,11.5C 221.333,10.1667 223.667,10.1667 226,11.5C 226.333,18.1667 226.667,24.8333 227,31.5C 229.167,28.5 231.333,25.5 233.5,22.5C 236.5,21.1667 239.5,21.1667 242.5,22.5C 239.5,26.5 236.5,30.5 233.5,34.5C 236.502,39.4867 239.836,44.1534 243.5,48.5 Z"/></g>
<g><path style="opacity:0.665" fill="#393939" d="M 175.5,11.5 C 177.833,11.5 180.167,11.5 182.5,11.5C 184.257,18.3491 181.924,20.6824 175.5,18.5C 174.286,16.1413 174.286,13.808 175.5,11.5 Z"/></g>
<g><path style="opacity:0.494" fill="#209fbf" d="M 50.5,8.5 C 51.4731,10.9479 51.8064,13.6146 51.5,16.5C 50.0413,16.4326 48.7079,16.7659 47.5,17.5C 47.5,15.1667 47.5,12.8333 47.5,10.5C 47.9731,9.09368 48.9731,8.42702 50.5,8.5 Z"/></g>
<g><path style="opacity:0.76" fill="#393939" d="M 149.5,14.5 C 152.167,14.5 154.833,14.5 157.5,14.5C 157.5,23.8333 157.5,33.1667 157.5,42.5C 162.167,42.5 166.833,42.5 171.5,42.5C 171.5,44.8333 171.5,47.1667 171.5,49.5C 164.167,49.5 156.833,49.5 149.5,49.5C 149.5,37.8333 149.5,26.1667 149.5,14.5 Z"/></g>
<g><path style="opacity:0.787" fill="#06d299" d="M 47.5,23.5 C 47.8333,24.5 48.5,25.1667 49.5,25.5C 50.1667,27.1667 50.8333,28.8333 51.5,30.5C 51.6659,35.5111 51.4993,40.5111 51,45.5C 47.0212,48.2376 42.8546,50.571 38.5,52.5C 35.796,53.7143 33.1293,53.7143 30.5,52.5C 26.4414,50.052 22.2747,47.7187 18,45.5C 17.5007,40.5111 17.3341,35.5111 17.5,30.5C 18.1752,27.8215 19.5085,25.4882 21.5,23.5C 26.0675,21.2996 30.5675,18.9663 35,16.5C 39.2588,18.7116 43.4254,21.045 47.5,23.5 Z M 44.5,27.5 C 43.5,28.1667 42.5,28.8333 41.5,29.5C 40.1667,30.1667 38.8333,30.8333 37.5,31.5C 35.8333,31.5 34.1667,31.5 32.5,31.5C 30.9382,31.2671 29.6049,30.6005 28.5,29.5C 26.9505,28.5592 25.2838,27.8925 23.5,27.5C 27.3529,25.3178 31.1863,22.9845 35,20.5C 37.9212,22.7121 41.0879,24.5455 44.5,26C 45.7383,26.69 45.7383,27.19 44.5,27.5 Z M 21.5,30.5 C 22.391,31.1098 23.391,31.4431 24.5,31.5C 26.3356,33.588 28.6689,34.9213 31.5,35.5C 31.5569,36.609 31.8902,37.609 32.5,38.5C 32.5,42.1667 32.5,45.8333 32.5,49.5C 29.1944,47.5113 25.8611,45.5113 22.5,43.5C 21.5078,39.2172 21.1744,34.8839 21.5,30.5 Z M 47.5,30.5 C 47.6657,34.8461 47.499,39.1794 47,43.5C 43.6667,45.5 40.3333,47.5 37,49.5C 36.5172,48.552 36.3505,47.552 36.5,46.5C 36.5,43.8333 36.5,41.1667 36.5,38.5C 37.9063,38.0269 38.573,37.0269 38.5,35.5C 41.0316,34.4043 43.3649,33.0709 45.5,31.5C 46.1667,31.1667 46.8333,30.8333 47.5,30.5 Z"/></g>
<g><path style="opacity:0.727" fill="#2d87d1" d="M 51.5,16.5 C 51.5,19.5 51.5,22.5 51.5,25.5C 50.8333,25.5 50.1667,25.5 49.5,25.5C 48.5,25.1667 47.8333,24.5 47.5,23.5C 47.5,21.5 47.5,19.5 47.5,17.5C 48.7079,16.7659 50.0413,16.4326 51.5,16.5 Z"/></g>
<g><path style="opacity:0.727" fill="#393939" d="M 81.5,21.5 C 88.5,21.5 95.5,21.5 102.5,21.5C 102.663,23.8568 102.497,26.1902 102,28.5C 98.0481,32.907 94.2148,37.407 90.5,42C 94.8206,42.499 99.1539,42.6657 103.5,42.5C 103.5,44.8333 103.5,47.1667 103.5,49.5C 95.8333,49.5 88.1667,49.5 80.5,49.5C 80.3359,46.8127 80.5026,44.146 81,41.5C 84.7357,37.6873 88.2357,33.6873 91.5,29.5C 88.2317,28.513 84.8984,28.1796 81.5,28.5C 81.5,26.1667 81.5,23.8333 81.5,21.5 Z"/></g>
<g><path style="opacity:0.701" fill="#393939" d="M 174.5,21.5 C 177.167,21.5 179.833,21.5 182.5,21.5C 182.5,30.8333 182.5,40.1667 182.5,49.5C 179.833,49.5 177.167,49.5 174.5,49.5C 174.5,40.1667 174.5,30.8333 174.5,21.5 Z"/></g>
<g><path style="opacity:0.739" fill="#393939" d="M 188.5,21.5 C 193.579,22.103 198.579,22.103 203.5,21.5C 210.049,20.8819 213.216,23.8819 213,30.5C 213.667,36.5 213.667,42.5 213,48.5C 210.619,49.435 208.119,49.7683 205.5,49.5C 205.666,42.825 205.5,36.1583 205,29.5C 202.413,26.9659 199.747,26.9659 197,29.5C 196.667,35.8333 196.333,42.1667 196,48.5C 193.619,49.435 191.119,49.7683 188.5,49.5C 188.5,40.1667 188.5,30.8333 188.5,21.5 Z"/></g>
<g><path style="opacity:0.448" fill="#1da6ba" d="M 49.5,25.5 C 50.1667,25.5 50.8333,25.5 51.5,25.5C 53.5,26.8333 55.5,28.1667 57.5,29.5C 57.4431,30.609 57.1098,31.609 56.5,32.5C 54.7162,32.1075 53.0495,31.4408 51.5,30.5C 50.8333,28.8333 50.1667,27.1667 49.5,25.5 Z"/></g>
<g><path style="opacity:0.306" fill="#1aacb6" d="M 21.5,17.5 C 21.5,19.5 21.5,21.5 21.5,23.5C 19.5085,25.4882 18.1752,27.8215 17.5,30.5C 16.3951,31.6005 15.0618,32.2671 13.5,32.5C 12.5987,31.7095 11.9321,30.7095 11.5,29.5C 16.5678,27.6802 18.5678,24.0135 17.5,18.5C 18.7079,17.7659 20.0413,17.4326 21.5,17.5 Z"/></g>
<g><path style="opacity:0.672" fill="#1aafb4" d="M 23.5,27.5 C 25.2838,27.8925 26.9505,28.5592 28.5,29.5C 27.8166,31.1765 26.4832,31.8432 24.5,31.5C 23.391,31.4431 22.391,31.1098 21.5,30.5C 21.7822,29.2223 22.4489,28.2223 23.5,27.5 Z"/></g>
<g><path style="opacity:1" fill="#1cacb6" d="M 44.5,27.5 C 45.0998,28.8999 46.0998,29.8999 47.5,30.5C 46.8333,30.8333 46.1667,31.1667 45.5,31.5C 43.5168,31.8432 42.1834,31.1765 41.5,29.5C 42.5,28.8333 43.5,28.1667 44.5,27.5 Z"/></g>
<g><path style="opacity:0.908" fill="#09d09b" d="M 32.5,31.5 C 34.1667,31.5 35.8333,31.5 37.5,31.5C 37.4326,32.9587 37.7659,34.2921 38.5,35.5C 38.573,37.0269 37.9063,38.0269 36.5,38.5C 35.1667,38.5 33.8333,38.5 32.5,38.5C 31.8902,37.609 31.5569,36.609 31.5,35.5C 31.8333,34.1667 32.1667,32.8333 32.5,31.5 Z"/></g>
<g><path style="opacity:0.971" fill="#2991ca" d="M 28.5,29.5 C 29.6049,30.6005 30.9382,31.2671 32.5,31.5C 32.1667,32.8333 31.8333,34.1667 31.5,35.5C 28.6689,34.9213 26.3356,33.588 24.5,31.5C 26.4832,31.8432 27.8166,31.1765 28.5,29.5 Z"/></g>
<g><path style="opacity:0.792" fill="#2992ca" d="M 41.5,29.5 C 42.1834,31.1765 43.5168,31.8432 45.5,31.5C 43.3649,33.0709 41.0316,34.4043 38.5,35.5C 37.7659,34.2921 37.4326,32.9587 37.5,31.5C 38.8333,30.8333 40.1667,30.1667 41.5,29.5 Z"/></g>
<g><path style="opacity:0.684" fill="#08ce9c" d="M 11.5,29.5 C 11.9321,30.7095 12.5987,31.7095 13.5,32.5C 11.5654,33.81 9.56544,35.1433 7.5,36.5C 6.33772,41.467 6.17105,46.467 7,51.5C 9.47945,53.3141 11.9795,54.9808 14.5,56.5C 14.5,57.8333 14.5,59.1667 14.5,60.5C 10.8884,58.7277 7.38841,56.7277 4,54.5C 3.16892,47.4763 3.33559,40.4763 4.5,33.5C 7.02366,32.4077 9.35699,31.0743 11.5,29.5 Z"/></g>
<g><path style="opacity:0.609" fill="#09cd9d" d="M 57.5,29.5 C 60.5525,30.7769 63.3859,32.4436 66,34.5C 66.8309,41.1915 66.6642,47.8582 65.5,54.5C 64.4822,55.1925 63.4822,55.8592 62.5,56.5C 62.5,55.1667 62.5,53.8333 62.5,52.5C 62.666,47.1563 62.4994,41.8229 62,36.5C 59.833,35.5119 57.9997,34.1786 56.5,32.5C 57.1098,31.609 57.4431,30.609 57.5,29.5 Z"/></g>
<g><path style="opacity:0.694" fill="#393939" d="M 135.5,40.5 C 143.159,39.0099 145.492,41.8432 142.5,49C 134.756,50.8002 132.422,47.9669 135.5,40.5 Z"/></g>
<g><path style="opacity:0.086" fill="#2794c8" d="M 32.5,38.5 C 33.8333,38.5 35.1667,38.5 36.5,38.5C 36.5,41.1667 36.5,43.8333 36.5,46.5C 35.8485,45.9094 35.1818,45.2427 34.5,44.5C 33.8302,46.2914 33.1635,47.9581 32.5,49.5C 32.5,45.8333 32.5,42.1667 32.5,38.5 Z"/></g>
<g><path style="opacity:0.898" fill="#2d88d1" d="M 30.5,52.5 C 33.1293,53.7143 35.796,53.7143 38.5,52.5C 40.5,53.8333 42.5,55.1667 44.5,56.5C 43.596,57.209 43.2627,58.209 43.5,59.5C 40.4765,58.5716 37.6432,57.2383 35,55.5C 32.7473,56.3773 30.5806,57.3773 28.5,58.5C 27.596,57.791 27.2627,56.791 27.5,55.5C 28.6935,54.7281 29.6935,53.7281 30.5,52.5 Z"/></g>
<g><path style="opacity:0.65" fill="#0fc0a7" d="M 62.5,52.5 C 62.5,53.8333 62.5,55.1667 62.5,56.5C 60.0616,58.2672 57.395,59.6006 54.5,60.5C 54.7373,59.209 54.404,58.209 53.5,57.5C 56.2402,55.4405 59.2402,53.7738 62.5,52.5 Z"/></g>
<g><path style="opacity:0.653" fill="#1fa1be" d="M 27.5,55.5 C 27.2627,56.791 27.596,57.791 28.5,58.5C 27.0351,59.7368 25.3684,60.7368 23.5,61.5C 21.9519,61.1788 21.2852,60.1788 21.5,58.5C 23.2163,56.9752 25.2163,55.9752 27.5,55.5 Z"/></g>
<g><path style="opacity:0.701" fill="#12b9ac" d="M 14.5,56.5 C 16.7932,58.1953 19.1266,58.862 21.5,58.5C 21.2852,60.1788 21.9519,61.1788 23.5,61.5C 22.8333,62.1667 22.1667,62.8333 21.5,63.5C 20.5,63.5 19.5,63.5 18.5,63.5C 17.205,62.5116 15.8717,61.5116 14.5,60.5C 14.5,59.1667 14.5,57.8333 14.5,56.5 Z"/></g>
<g><path style="opacity:0.685" fill="#1ea3bc" d="M 44.5,56.5 C 46.3863,57.3606 48.2196,58.3606 50,59.5C 50.8159,58.1772 51.9826,57.5106 53.5,57.5C 54.404,58.209 54.7373,59.209 54.5,60.5C 53.3065,61.2719 52.3065,62.2719 51.5,63.5C 50.5,63.5 49.5,63.5 48.5,63.5C 46.6508,62.407 44.9842,61.0737 43.5,59.5C 43.2627,58.209 43.596,57.209 44.5,56.5 Z"/></g>
</svg>
